<?xml version="1.0" encoding="utf-8"?>
<!-- Generator: Adobe Illustrator 19.2.1, SVG Export Plug-In . SVG Version: 6.00 Build 0)  -->
<svg version="1.1" id="Layer_1" xmlns="http://www.w3.org/2000/svg" xmlns:xlink="http://www.w3.org/1999/xlink" x="0px" y="0px"
	 viewBox="0 0 702 564.667" style="enable-background:new 0 0 702 564.667;" xml:space="preserve">
<style type="text/css">
	.st0{fill:#C9282D;}
</style>
<path class="st0" d="M474.232,265.771L611.223,128.78c9.925-9.925,9.925-26.166,0-36.091L542.65,24.116
	c-9.925-9.925-26.166-9.925-36.091,0L369.568,161.107c-6.6,6.6-17.3,6.6-23.9,0L208.676,24.116c-9.925-9.925-26.166-9.925-36.091,0
	l-68.573,68.573c-9.925,9.925-9.925,26.166,0,36.091l136.991,136.991c6.6,6.6,6.6,17.3,0,23.9L104.012,426.662
	c-9.925,9.925-9.925,26.166,0,36.091l68.573,68.573c9.925,9.925,26.166,9.925,36.091,0l136.991-136.991c6.6-6.6,17.3-6.6,23.9,0
	l136.991,136.991c9.925,9.925,26.166,9.925,36.091,0l68.573-68.573c9.925-9.925,9.925-26.166,0-36.091L474.232,289.671
	C467.632,283.071,467.632,272.371,474.232,265.771z"/>
</svg>
