<?xml version="1.0" encoding="utf-8"?>
<!-- Generator: Adobe Illustrator 19.2.1, SVG Export Plug-In . SVG Version: 6.00 Build 0)  -->
<svg version="1.1" id="Layer_1" xmlns="http://www.w3.org/2000/svg" xmlns:xlink="http://www.w3.org/1999/xlink" x="0px" y="0px"
	 viewBox="0 0 702 564.667" style="enable-background:new 0 0 702 564.667;" xml:space="preserve">
<style type="text/css">
	.st0{fill:#6C953C;}
</style>
<path class="st0" d="M672.187,97.487l-71.919-71.919c-10.893-10.893-28.717-10.893-39.61,0L274.885,311.341
	c-8.909,8.909-23.354,8.909-32.263,0l-88.773-88.773c-10.893-10.893-28.717-10.893-39.61,0l-71.919,71.919
	c-10.893,10.893-10.893,28.717,0,39.61l179.333,179.333c0.737,0.737,1.508,1.42,2.305,2.057l15.115,15.115
	c10.893,10.893,28.717,10.893,39.61,0l393.505-393.505C683.08,126.204,683.08,108.379,672.187,97.487z"/>
</svg>
