<?xml version="1.0" encoding="utf-8"?>
<!-- Generator: Adobe Illustrator 19.2.1, SVG Export Plug-In . SVG Version: 6.00 Build 0)  -->
<svg version="1.0" id="Logo" xmlns="http://www.w3.org/2000/svg" xmlns:xlink="http://www.w3.org/1999/xlink" x="0px" y="0px"
	 width="509.9px" height="780px" viewBox="0 0 509.9 780" style="enable-background:new 0 0 509.9 780;" xml:space="preserve">
<style type="text/css">
	.st0{fill:#FFFFFF;}
</style>
<title>cass-business-school-full</title>
<path class="st0" d="M230.2,116.2l-2.1,0.3c-2.8,4.1-4.9,8.6-6.3,13.4c0.6,0.4,1.3,0.8,2,1.1C225.5,125.9,227.6,121,230.2,116.2
	 M237.7,131.7c1.5-3.9,5.3-13,6.8-15.3c-1.3-0.3-2.6-0.4-3.9-0.4c-2.2,3.8-6.4,13.3-7.4,15.8C234.6,131.8,236,131.7,237.7,131.7
	 M229.2,131.8c2-5.5,4.5-10.9,7.4-16c0,0-2.4,0-3.3,0.1c-2.9,5-5.4,10.3-7.5,15.8C225.8,131.7,226.6,132.1,229.2,131.8 M348,380.5
	c6.1,2.7,10.1,15.9-3.2,21.9c6.8-17.1-19.5-32.9-46.8-16.4c0.9-1.1,1.8-2.2,2.7-3.3c28.5-18.2,75.3,2.2,93.3-24.3
	c1.1,6.9-5.4,16.6-19.5,19.2c14.8,1.8,22.3,9,32.3,11C396.9,388.8,372.3,376.1,348,380.5 M254.6,410.7
	c-47.9-29.6-69-92.6-71.8-162.8c6-0.6,19.5-1.8,35-2.7c0.2,37.4,3.9,83.7,22.1,132.1c-1.8-27-4.4-81.5-3.8-132.9
	c6.1-0.2,12.2-0.3,18.1-0.2l0.4-0.3l0.3,0.3c27.1-0.4,61,2.7,71.5,3.7C323.6,318.1,302.5,381.1,254.6,410.7 M165.2,402.8
	c-13.3-6-9.2-19.1-3.2-21.9c-24.4-4.4-48.9,8.3-58.8,8c10-2,17.5-9.2,32.3-11c-14.1-2.7-20.6-12.3-19.5-19.2
	c17.9,26.4,64.2,6.4,92.8,24c0.9,1.2,1.8,2.2,2.7,3.4C184.4,370.1,158.4,385.7,165.2,402.8 M183.3,204.3c8.6-1.4,21.6-2.8,35.4-3.8
	c-0.2,7.9-0.5,16.7-0.7,26.3c-13.6,0.9-25.9,2.2-35.5,3.1C182.5,221.5,182.8,212.9,183.3,204.3 M199.6,176.4
	c5.8-6.5,18.8-12.4,25.2-18.9c2.1,5.4,3.3,11.1,3.6,16.9c-2.4,3.1-10.5,5.1-13.3,9.6c-0.4,2.2-0.6,4.4-0.6,6.6l-5,0.4
	c3.2-5.4-0.9-9.9-6.3-11.4c0.7,5.4-1.9,8.3-3.7,8.6C195.6,187.1,196.4,180,199.6,176.4 M219.8,143.9c-3.6-1.1-6.1-7-4.6-10.8
	c0.8-0.8,2.1-0.9,3.3-2c2.2-2,1.9-11.5,12.2-20.5c7.6-1.7,18.5-2.3,24.5-1.3c0.7,0.4,7.7,3.2,9.2,26.3c5.2-0.6,10.3-1.6,15.3-3
	C269.1,141.4,222.1,144.5,219.8,143.9 M227.8,97.2c3.5-0.9,7.2-0.9,10.8-0.2c2-0.7,7.5-1.3,10.7-0.2c4.9-1.2,11.1-0.7,13.6,0.2
	c3-1.4,8.8-0.7,11.3,0.1c8.8-2.1,13.4,2.2,13.4,5c0,2-0.6,2.5-1.6,3.1c-3.6,2-2.6-3.5-10.3-5.3c3.3,1.7,3.6,5.4,7.3,6.2
	c-12.5,2-10-7.8-19-7.8c3.9,1.1,4.5,5.9,8.2,7.6c-12.8,1.3-11.7-8.2-21.1-7.9c4.7,1.4,5,6.1,10,7.7c-13.6,1.9-11.4-8.4-21.5-7.6
	c4.8,2.1,5.6,6.2,10.1,7.3c-12.6,3.4-12.3-7.1-20.6-6.3c3.7,0.9,5.4,5.2,8.4,6.5c-7.1,2.6-6.9-3.3-13-3.2c2.4,0.9,3.3,2.8,5.5,4
	C218.1,108,219.7,96.4,227.8,97.2 M275.9,123.3c1.6,0,2.8,1.3,2.7,2.9c0,1.6-1.3,2.8-2.9,2.7c-1.5,0-2.7-1.3-2.7-2.8
	C273,124.5,274.3,123.3,275.9,123.3C275.9,123.3,275.9,123.3,275.9,123.3 M290.3,178.8c-4.3-0.2-4.8,0.6-7.2,1.2
	c-6-9-6.6-25-1.2-34.8C281.4,157.2,283.2,174.4,290.3,178.8 M309.6,176.4c3.2,3.7,4.1,10.8,0.2,11.9c-1.8-0.3-4.4-3.2-3.7-8.6
	c-1.7,0.5-3.4,1.3-4.8,2.5c-1.7-1.8-4-2.8-6.5-2.9c-5-5.4-7-12.2-7.5-19C294.2,165.7,304.7,170.8,309.6,176.4 M298.6,187
	c-0.1,1.4,0.3,2.8,1,4c-4.9-0.4-9.6-0.7-14.1-1C289.5,187.8,294.1,186.7,298.6,187 M275.7,176.9c-5.8-4.6-10.4-20.8-4.8-32.8
	c1.2-3.2,5.1-5.3,4.7-2.6C272.4,151.7,272.8,167.9,275.7,176.9 M228.1,195.7c5.3-10,6.5-23.6-0.7-42.9c5.4,5.1,8.7,18.4,9.2,24.9
	c1.8-2.5,2.5-10.4,1.8-15.7c4.2,16.7,1,39.8-3.1,43.5c-2.7-1.4-4.8-4.4-6.5-7c1.1,3.6,2.9,7,5.3,9.9c26.5-9,45.8-30.6,61-24.9
	c-8.4,0.5-14.6,4.3-20.4,9.8c-9-1.4-15.8,15.6-43.8,24.1c-3.5-2.2-7.4-13.5-8.7-17.5s-2.7-4.9-4.6-4.9c-0.6-3.3-0.4-6.8,0.7-10
	c0,0,2.1-2.2,7.8-4.2C226,185.7,226.6,190.8,228.1,195.7 M325.9,204.3c0.5,8.6,0.8,17.2,0.8,25.7c-17.8-1.8-44.7-4.5-72.1-4.6
	c-6.1,0-12.1,0.2-18,0.4c0-2.1,0.1-4.3,0.2-6.4c15-5,26.6-15.6,33.7-20C289.1,200.1,307.6,201.7,325.9,204.3 M165.9,196.2
	c0,7.6,0,14.7,0,21.6c-1-3.5-3.5-7.2-8.1-11.1c-4.5,21.9-28.7,22-40,8.4c4.3-17.2,25.6-26.7,46.7-31.9c0.5,5.7,2.6,9.7,5.4,12.4
	L165.9,196.2 M151.3,237.9c3.9-0.3,12.5-5.5,14.6-13.1c0.1,11.1,0.3,21.6,0.8,32.2C164.3,250.5,159.6,243.9,151.3,237.9
	 M344.8,183.3c21.1,5.2,42.4,14.7,46.7,31.9c-11.4,13.6-35.5,13.5-40-8.4c-4.7,3.9-7.2,7.6-8.1,11.1c0-6.9,0-14.1,0-21.7l-4-0.6
	C342.3,192.9,344.3,189,344.8,183.3 M342.6,257.1c0.5-10.6,0.7-21.1,0.8-32.2c2.1,7.6,10.8,12.7,14.6,13.1
	C349.7,244,345,250.6,342.6,257.1 M419,386.2c5.1-4,8.3-9.9,8.8-16.3c-15.7,13.6-38,7.3-38,7.3s26.1-8.7,4.7-38
	c1.4,26.9-27.1,30.3-48.7,30.3c-15.6,0-30,1.7-40.2,6.1c18.1-25.7,29.6-54,32.7-75.3c1.1-7.5,1.9-14.6,2.6-21.5l0.1,0.7
	c2,11.1,6.2,16,25,23.8s17.6,20.1,7.9,27.7c14.5,4.1,24.7-17.8,9.1-37.6c1.5-1.3,8.2-10.6-0.8-22c-4.7,8.5-15,11.4-21.7,10
	c13.8,6.6,20.7-2.6,21.8-4.1c3.7,8.8-1,16-5.4,16.1c7.7,5.9,13,12.9,11.2,23.9c-1.4-8.1-19.8-14.9-29.4-20.4
	c-7.5-4.3-11.9-16.2-1.3-22.2s21.1-10.8,29.2-19c1.4,5.7,7,18.6,28.2,24.8c-24-35.5,9.2-37.1-7.2-69.5
	c-2.8,30.8-45.7,38.1-45.7,38.1c35.7-14.3,47.1-35.3,40.5-56.2c-4.4-13.8-17.7-27.5-46.4-36.9c5.7-1.1,9.7-2.7,12.6-5.3
	c-17,4-21.8,3.4-29.2,2.4c35.2,9.7,53.4,21.8,57,38.1c1.8,8,0.5,14.9-2.6,20.2c-6.4-21.4-39.7-30.3-51.9-32.7
	c0,6.9-2.9,11.2-6.9,13.9l-21.5-3.3c2.5-3.1,3.4-7.2,2.4-11.1c-1.7-7-8.8-15.7-28.6-29.5c0.1-1.7,0.3-3.4,0.5-4.9
	c8.8,7,25.8,16,41,20.1c-12.1-5.2-31.1-14.9-40.6-24.5c0-0.4,0.1-0.7,0.1-1.1c0.1-1.2,0.2-2.4,0.2-3.5
	c17.4,13.1,32.4,16.1,37.8,16.1c-8.5-2.3-41.7-17.6-57.7-42.6c3.5,0.1,7,0.2,10.4,0.4c6.2,9.3,14,17.4,23,24
	c-7.2-6.8-12.9-15-16.8-24.2h-0.1c3-0.5,5.3-3.2,5.2-6.2c0-2.7-1.3-8.6-16.2-7.8h-0.7c-5.2-1.6-10.5-2.5-15.9-2.7
	c-0.7-4.3-4.1-6.3-5.8,0c-4.7,0.5-9.3,1.3-13.9,2.5c-3.4-0.3-7.5-0.3-10.3,0.6c-6.5,0.4-9,3.8-9.1,7.1c-0.1,3.6,2.6,6.6,6.2,6.7
	c-2.2,3.4-10.6,16.3-17.8,24.1c5-3.1,11.5-9.4,11.5-9.4l0.6-1c-0.8,2.5-1.4,4.7-2,6.2c-1.1,0.9-2.3,1.5-3.5,2
	c-0.3,0.1-2.1,0.9-2.2,2.3v0.5c-10.5,11.9-50,30.4-66.3,38.1c17.9-7.5,41.1-14.5,66.4-33.2c0.2,1.2,0.5,2.4,0.9,3.6
	c-9.1,9.1-22.5,16.5-30.8,22.4c12.8-5.1,24.7-13.9,32.7-19.3c0.5,0.5,1,1,1.6,1.3c1,0.2,2,0.4,3,0.5c0.8,0.7,1.5,1.6,2.1,2.5
	c-19,13.4-25.9,21.9-27.6,28.8c-1,3.9-0.1,8.1,2.5,11.3l-21.5,3.3c-4.2-2.6-7.1-7-7.1-14c-12.2,2.4-45.6,11.4-51.9,32.7
	c-3.1-5.4-4.4-12.2-2.6-20.2c3.6-16.3,21.8-28.4,57-38.1c-7.3,1-12.1,1.6-29.2-2.4c3,2.7,6.9,4.2,12.6,5.3
	c-28.8,9.4-42,23.1-46.4,36.9c-6.6,20.8,4.8,41.9,40.5,56.2c0,0-42.9-7.3-45.6-38.1c-16.3,32.5,16.8,34-7.1,69.5
	c21.1-6.3,26.7-19.2,28.1-24.9c8.1,8.3,18.6,13,29.2,19s6.2,17.9-1.3,22.2c-9.6,5.5-29,13-29.3,20.8c-2-11.1,3.4-18.4,11.1-24.3
	c-4.5,0-9.2-7.2-5.5-16.1c1.1,1.5,7.9,10.7,21.8,4.1c-6.7,1.4-17-1.5-21.7-10c-9,11.4-2.3,20.8-0.8,22c-2.6,3.5-12.8,17.7-4.9,31.8
	c1.8,3.1,6.9,8.1,13.9,5.9c-9.5-7.5-10.8-19.9,8-27.7s22.9-12.7,25-23.8l0.1-0.6c0.7,6.9,1.5,14,2.6,21.5
	c3.1,21.4,14.7,49.8,32.9,75.6c-10.2-4.2-24.4-6-39.7-5.9c-21.6,0-50-3.4-48.7-30.3c-21.4,29.3,4.6,38,4.6,38s-22.4,6.3-38-7.3
	c0.6,6.4,3.8,12.3,8.9,16.3c-2,0.2-24.2,3.1-36-15.5c7.5,46.1,77.4,21.8,88.3,16.3c-4.4,4.2-13.4,15.9-4.5,24
	c0.2-11.5,12.5-17.4,15.7-18c1.5,7.2,7.8,11.7,13.6,13c-1.4-7.7-0.4-20.3,25.3-19c12.3,0.7,24.5,8.9,34.7,16.8l0.9,0.7
	c7.9,7.6,16.5,14.3,25.8,20.1c9.2-5.7,17.8-12.3,25.7-19.8l1.7-1.3l34.7-16.8c25.7-1.4,26.7,11.2,25.3,18.9
	c5.8-1.4,12.1-5.8,13.6-13c3.2,0.6,15.4,6.5,15.7,18c8.8-8.2-0.1-19.8-4.5-24c10.9,5.5,80.8,29.8,88.2-16.3
	C443.1,389.4,421,386.5,419,386.2 M325.6,141.9c-8.6-1-13.2-2.5-18.9-5.9c16.7,13.1,42.1,16.7,66.1,12.2c10.5-1.9,26.4-1.2,36.1,3.6
	c-3.1-6-19.2-16.9-27.4-18.1c10-16,2.7-27.4,19-37.6c-2.9-2.8-12.7-4.6-20,0.3c-3.3-3.9-9.8-9.6-19.2-10.6
	c-11.2-1.2-19.1,1-26.2,10.8c9.4-10.5,28.7-12.9,40.9-1.3c-19.5-9.5-33.2,9.3-34.4,29.7c-5.3-6.8-7.9-17.6-7.8-20.9
	c-7,0.7-13.3,6.7-13.8,16.6c-2.5-3.4-9.5-22.6,3.9-32c-3.9-4.5-5.2-9.5-4-12.9c8.7,5.3,21.7,3.8,36,7.2c-13.8-8.4-28.8-3.1-39.4-13
	c-2.3,6.3,0.2,13,3.4,18.2c-14.8,16.3-3.9,37.6,3.1,41.5c-0.8-7.5,1.9-16.4,8.2-19.7c1.4,10.6,10.8,20.6,12.4,23.3
	c0.2-5.3,2-26.4,9.5-25.8c4.6,0.4,8.3,9.2,6.6,15.5C357.3,131.8,350.7,144.7,325.6,141.9 M247.2,130.6c1-2.1,2.9-8.4,4.5-13.3
	l-3.7-0.6c-2.1,5.1-5.6,13.2-6,14.5C243.8,131.1,245.5,130.9,247.2,130.6 M136.4,148.2c24,4.4,49.4,0.9,66.1-12.2
	c-5.8,3.4-10.4,4.9-18.9,5.9c-25.1,2.8-31.6-10.1-33.9-18.7c-1.7-6.3,1.9-15.2,6.6-15.5c7.6-0.6,9.4,20.5,9.5,25.8
	c1.5-2.7,10.9-12.7,12.4-23.3c6.3,3.3,9.1,12.3,8.2,19.7c7-3.9,17.9-25.2,3.1-41.5c3.2-5.2,5.8-11.9,3.4-18.2
	c-10.6,9.9-25.6,4.6-39.4,13c14.3-3.4,27.3-1.9,36-7.2c1.2,3.4-0.2,8.3-4,12.9c13.4,9.4,6.4,28.6,3.9,32
	c-0.5-9.9-6.9-15.9-13.8-16.6c0.2,3.2-2.5,14.1-7.8,20.9c-1.2-20.4-14.9-39.3-34.4-29.7c12.2-11.6,31.5-9.2,40.9,1.3
	c-7-9.7-15-12-26.2-10.8c-9.4,1-15.9,6.7-19.2,10.6c-7.3-5-17.1-3.2-20-0.3c16.3,10.2,9,21.6,19,37.6c-8.3,1.2-24.4,12.1-27.4,18.1
	C110,147,125.9,146.3,136.4,148.2 M262.2,135.8c-6.8,0.6-24.8,2.7-38.1,1.3c-2.1-1-3.8-2.5-5.1-4.4c0.2,2.7,1.1,5.2,2.7,7.3
	C227.9,140.9,257.7,138.2,262.2,135.8 M241.5,50.8c0.9,8.9,5.2,13.6,7.3,12.7s-2.3-17.7,7.5-26.3c-4.5,9.3,0,16.6,1.6,25.4
	c1.1,5.8-0.7,14.5-3.6,16.1C251.3,80.3,238.3,71,241.5,50.8 M235.3,70.9c2,8.3,9.7,14.3,19.4,15.1c4.7,0.4,12.9-2.5,14.1-11.1
	c-8.2,3-4.1-4.5,1.6-7.5s10.7-11.4,4.9-21.7c-1.4,11.2-12.8,16.1-11.5,9.6c0.9-4.5,14.3-20,4.5-37.9c-1.4,5.4-1,10.6-5.5,9.5
	s-9.6-19.2-1.1-27c-9.2,1-15.7,12-14.5,19.5s4.9,16.9,0,19.7c-2.8,1.6-4.7,0.4-5.3-1.9c-1-4.3,0.2-12.8-8.3-15.8
	C239.4,33.1,231.1,54,235.3,70.9"/>
<path class="st0" d="M336.8,762.4l4.8-6.7c1.5-2.2,2.9-4.2,4.2-6.1s2.3-3.5,3.2-4.8c0.6,0.2,1.2,0.2,1.8,0.3c0.6,0,1.1-0.1,1.7-0.3
	c-0.1,2.3-0.2,4.8-0.3,7.7s-0.1,5.8-0.1,8.8v5.7c1,0,1.9,0,2.8-0.1s1.6-0.2,2.2-0.3c-0.3,1.1-0.3,2.3,0,3.4
	c-0.7-0.1-1.5-0.2-2.2-0.2c-0.9,0-1.8-0.1-2.8-0.1v2.2c0,1.4,0,2.7,0.1,4.2s0.1,2.5,0.2,3.4c-0.7-0.1-1.5-0.1-2.3-0.1
	s-1.6,0-2.3,0.1c0.1-0.9,0.2-2,0.3-3.5s0.2-2.8,0.2-4.1v-2.2h-3.4l-4.7,0.1c-1.6,0-3.2,0.1-4.7,0.1l-3.3,0.1V769
	C333.6,766.9,335.2,764.7,336.8,762.4 M348.2,749.6c-0.7,1-1.6,2.3-2.7,3.8l-3.5,4.9c-1.2,1.7-2.3,3.3-3.3,4.8s-1.9,2.8-2.5,3.8
	h12.1L348.2,749.6L348.2,749.6z M308.2,777.8c0.9,0.4,1.8,0.6,2.7,0.6c1.7,0,3.4-0.5,4.8-1.5c1.4-1.1,2.5-2.5,3.2-4.1
	c0.9-1.8,1.5-3.7,1.8-5.6c0.4-2,0.6-4.1,0.6-6.2h-0.1c-0.8,1.4-1.9,2.6-3.2,3.5c-1.5,0.9-3.3,1.4-5.1,1.3c-2.7,0.2-5.4-0.8-7.4-2.7
	c-1.8-1.8-2.7-4.3-2.7-7.6c0-1.5,0.3-3,0.8-4.4c0.5-1.3,1.3-2.5,2.3-3.5c1-1,2.3-1.8,3.6-2.3c1.5-0.6,3.1-0.9,4.8-0.9
	c1.5,0,3,0.3,4.4,0.8c1.4,0.6,2.7,1.4,3.7,2.6c1.1,1.4,2,2.9,2.5,4.6c0.7,2.2,1,4.6,1,6.9c0,2.7-0.3,5.4-1,8.1
	c-0.6,2.3-1.6,4.6-3,6.6c-1.2,1.8-2.9,3.3-4.8,4.3c-2,1.1-4.2,1.6-6.4,1.5c-0.8,0-1.6-0.1-2.4-0.2c-0.6-0.1-1.1-0.3-1.7-0.4
	c-0.1-0.4-0.2-0.8-0.4-1.4c-0.2-0.5-0.4-1-0.6-1.4l0.3-0.2C306.6,776.9,307.4,777.5,308.2,777.8 M319.3,748.4
	c-1.2-1.5-3.1-2.3-5-2.2c-2,0-3.8,0.9-5,2.5c-1.4,2-2,4.5-1.9,6.9c0,3,0.6,5.1,1.7,6.4c1.2,1.3,2.9,2,4.6,1.9c1.1,0,2.2-0.3,3.2-0.8
	c0.9-0.6,1.7-1.3,2.3-2.2c0.6-1,1.1-2,1.4-3.1c0.3-1.2,0.5-2.4,0.5-3.6C321.3,752.1,320.6,750,319.3,748.4 M275,764.2
	c1.4-2,3.4-3.4,5.8-4v-0.4c-0.7-0.2-1.4-0.4-2-0.8c-0.7-0.4-1.3-0.9-1.8-1.5c-0.6-0.6-1-1.4-1.3-2.2c-0.4-0.9-0.5-1.8-0.5-2.7
	c0-1.1,0.2-2.2,0.7-3.1c0.5-1,1.2-1.9,2-2.6c0.9-0.8,1.9-1.4,3-1.8c1.3-0.5,2.6-0.7,4-0.7c1.5,0,3,0.2,4.4,0.7
	c1.1,0.4,2.1,0.9,3,1.7c0.8,0.7,1.4,1.5,1.8,2.4c0.4,0.9,0.6,1.9,0.6,2.9c0,1.6-0.5,3.2-1.5,4.6c-1.1,1.4-2.6,2.5-4.3,3v0.4
	c0.7,0.1,1.5,0.4,2.2,0.6c0.9,0.4,1.7,0.9,2.5,1.5c0.8,0.7,1.5,1.6,2,2.6c0.6,1.2,0.9,2.6,0.8,4c0,1.6-0.3,3.2-0.9,4.7
	c-0.6,1.3-1.4,2.5-2.5,3.5c-1.1,1-2.3,1.7-3.7,2.2c-1.4,0.5-2.9,0.7-4.5,0.7c-1.5,0-3.1-0.2-4.5-0.6c-1.3-0.4-2.6-1-3.7-1.9
	c-1-0.8-1.8-1.9-2.4-3.1c-0.6-1.3-0.9-2.8-0.9-4.3C273.3,768,273.9,765.9,275,764.2 M290.1,750.2c-0.2-0.8-0.5-1.5-1-2.1
	c-0.5-0.6-1.1-1.1-1.7-1.5c-1.6-0.7-3.4-0.7-5,0c-0.7,0.3-1.3,0.8-1.7,1.5c-0.5,0.6-0.8,1.3-1,2.1c-0.2,0.8-0.3,1.7-0.3,2.5
	c0,0.8,0.1,1.7,0.3,2.5c0.2,0.8,0.5,1.5,1,2.1c0.5,0.6,1.1,1.1,1.7,1.5c1.6,0.7,3.4,0.7,5,0c0.7-0.4,1.3-0.8,1.7-1.5
	c0.5-0.6,0.8-1.4,1-2.1c0.2-0.8,0.3-1.7,0.3-2.5C290.5,751.9,290.4,751,290.1,750.2 M291.3,766.2c-0.3-1-0.8-1.9-1.4-2.7
	c-1.9-2.4-5.2-3.1-8-1.8c-0.9,0.4-1.6,1-2.2,1.8c-0.6,0.8-1.1,1.7-1.4,2.7c-0.7,2.3-0.7,4.7,0,7c0.3,1,0.8,1.9,1.4,2.7
	c1.9,2.4,5.2,3.1,8,1.8c0.9-0.4,1.6-1,2.2-1.8c0.6-0.8,1.1-1.8,1.4-2.7C292,770.9,292,768.5,291.3,766.2 M251.7,751.2
	c-0.4-0.7-0.9-1.2-1.5-1.7v-0.4c2-0.8,4-1.7,6-2.6c2-1,4-1.9,5.8-2.8l0.4,0.2c-0.1,2.3-0.2,4.5-0.3,6.8c-0.1,2.2-0.1,4.5-0.1,6.8
	v8.6c0,2.3,0,4.5,0.1,6.7c0.1,2.2,0.2,4.3,0.3,6.4c-0.4-0.1-0.8-0.1-1.2-0.1h-2.4c-0.4,0-0.8,0-1.2,0.1c0.2-2.1,0.3-4.3,0.3-6.5
	s0.1-4.4,0.1-6.7v-18.4L251.7,751.2z M216.3,746.5h-2.8c-1,0-2,0-2.9,0.1s-1.9,0.1-2.9,0.2s-1.7,0.2-2.5,0.3
	c0.2-0.5,0.2-1.1,0.3-1.7c0-0.5-0.1-1.1-0.3-1.6l6.7,0.2c2.2,0,4.4,0.1,6.7,0.1c2.3,0,4.5,0,6.7-0.1l6.7-0.2
	c-0.2,0.5-0.2,1.1-0.3,1.7c0,0.5,0.1,1.1,0.3,1.6c-0.7-0.1-1.5-0.2-2.5-0.3s-1.9-0.1-2.9-0.2s-2-0.1-2.9-0.1h-2.8
	c-0.1,3.5-0.2,7.1-0.2,10.7v8.9c0,2.3,0,4.5,0.1,6.7s0.2,4.4,0.3,6.5c-0.8-0.1-1.6-0.1-2.5-0.1s-1.7,0-2.5,0.1
	c0.1-2.1,0.2-4.3,0.3-6.5s0.1-4.4,0.1-6.7v-8.9C216.5,753.6,216.4,750.1,216.3,746.5 M181.3,774.5c0.5,0.7,1.1,1.2,1.7,1.7
	c1.5,1.2,3.4,1.8,5.4,1.8c1.1,0,2.1-0.2,3.1-0.6c0.9-0.4,1.7-0.9,2.3-1.6c0.7-0.7,1.2-1.5,1.5-2.4c0.3-0.9,0.5-1.9,0.5-2.9
	c0.1-1.4-0.4-2.7-1.2-3.8c-0.8-1-1.9-1.7-3-2.3c-1.3-0.7-2.6-1.2-3.9-1.7c-1.4-0.5-2.7-1.1-3.9-1.9c-1.2-0.8-2.2-1.8-3-3
	c-0.9-1.5-1.3-3.1-1.2-4.8c0-1.4,0.2-2.7,0.8-4c0.5-1.2,1.3-2.2,2.2-3.1c1-0.9,2.2-1.6,3.5-2c1.5-0.5,3.1-0.8,4.7-0.7
	c1.4,0,2.9,0.2,4.3,0.6c1.2,0.4,2.4,1,3.4,1.8c-0.3,0.6-0.6,1.2-0.8,1.9c-0.2,0.7-0.4,1.5-0.6,2.5h-0.7c-0.2-0.5-0.4-1.1-0.7-1.6
	c-0.3-0.6-0.7-1.1-1.2-1.6c-0.5-0.5-1.1-0.9-1.8-1.2c-0.8-0.4-1.6-0.5-2.5-0.5c-0.9,0-1.8,0.1-2.6,0.5c-0.8,0.3-1.5,0.7-2.1,1.3
	c-0.6,0.6-1.1,1.3-1.4,2.1c-0.3,0.8-0.5,1.7-0.5,2.6c-0.1,1.4,0.4,2.7,1.2,3.8c0.8,1,1.9,1.8,3,2.3c1.3,0.7,2.6,1.2,3.9,1.7
	c1.4,0.5,2.7,1.1,3.9,1.8c1.2,0.7,2.2,1.7,3,2.8c0.9,1.4,1.3,2.9,1.2,4.5c0,1.5-0.3,3.1-0.9,4.5c-0.6,1.4-1.4,2.7-2.5,3.7
	c-1.1,1.1-2.5,1.9-4,2.4c-1.7,0.6-3.5,0.9-5.4,0.9c-1.8,0.1-3.5-0.2-5.2-0.9c-1.2-0.5-2.3-1.1-3.3-1.9c0.3-0.7,0.5-1.4,0.6-2.2
	c0.1-0.6,0.2-1.5,0.3-2.5h0.7C180.5,773.3,180.8,773.9,181.3,774.5 M153.1,750.4c-0.1-2.2-0.2-4.4-0.3-6.6l4.6,0.2
	c1.5,0,3.1,0.1,4.6,0.1s3.1,0,4.6-0.1l4.6-0.2c-0.1,0.5-0.2,1-0.1,1.5c0,0.5,0.1,1,0.1,1.5l-3-0.2l-2.9-0.2c-1-0.1-2.1-0.1-3.3-0.2
	s-2.6-0.1-4.3-0.1c0,1.1-0.1,2.2-0.1,3.2s-0.1,2.1-0.1,3.4s0,2.7,0,3.9s0,2.2,0,2.9c1.5,0,2.9,0,4.1-0.1s2.3-0.1,3.3-0.1l2.8-0.2
	c0.8-0.1,1.6-0.1,2.4-0.2c-0.1,0.5-0.2,1.1-0.1,1.6c0,0.5,0,1,0.1,1.5c-0.9-0.1-1.9-0.2-3.1-0.2c-1.2-0.1-2.4-0.1-3.6-0.1H160h-2.5
	c0,0.3,0,0.7,0,1s0,0.8,0,1.4v5.1c0,2,0,3.6,0,4.8c0,1.3,0,2.2,0.1,2.9h3.6c1.3,0,2.6,0,3.9-0.1s2.5-0.1,3.6-0.2
	c1-0.1,1.9-0.2,2.9-0.4c-0.1,0.3-0.1,0.5-0.1,0.8c0,0.3,0,0.6,0,0.8c0,0.5,0,0.9,0.1,1.3c-1.5-0.1-3.1-0.1-4.6-0.1h-9.4
	c-1.5,0-3.1,0-4.7,0.1c0.1-2.2,0.2-4.4,0.3-6.6s0.1-4.4,0.1-6.7v-8.9C153.2,754.9,153.2,752.6,153.1,750.4"/>
<path class="st0" d="M129.9,765.3H2.3c-1.1,0.2-2.1-0.5-2.4-1.5c-0.2-1.1,0.5-2.1,1.5-2.4c0.3-0.1,0.6-0.1,0.8,0h127.6
	c1.1-0.2,2.1,0.5,2.4,1.5s-0.5,2.1-1.5,2.4C130.5,765.4,130.2,765.4,129.9,765.3z"/>
<path class="st0" d="M507.5,765.4H379.9c-1.1,0-2-0.9-2-2s0.9-2,2-2h127.6c1.1,0,2,0.9,2,2S508.6,765.4,507.5,765.4z"/>
<path class="st0" d="M507.9,449.5H2c-1.1,0-2-0.9-2-2s0.9-2,2-2h505.9c1.1,0,2,0.9,2,2S509,449.5,507.9,449.5z"/>
<path class="st0" d="M131,504.5h-2.2c-0.7-1.3-1.8-3.2-3.3-5.5c-1.8-2.7-4.1-5-6.8-6.8c-3.8-2.5-7.9-4.5-12.2-5.8
	c-5.1-1.7-11.6-2.5-19.4-2.5c-18.3,0-32.2,5.7-41.7,17c-9.5,11.3-14.2,27.4-14.2,48.3c0,1.9,0.1,4.5,0.2,7.9
	c0.2,3.8,0.7,7.5,1.4,11.2c0.9,4.5,2.2,8.9,3.9,13.1c1.9,4.8,4.6,9.3,7.8,13.4c2,2.7,4.2,5.2,6.7,7.4c2.6,2.4,5.5,4.5,8.6,6.3
	c3.4,2,7,3.5,10.8,4.5c4.4,1.1,8.9,1.7,13.4,1.6c6,0.1,12-0.7,17.8-2.3c4.8-1.4,9.4-3.4,13.8-5.9c3.8-2.3,7.4-5,10.6-8
	c2.9-2.8,5.7-5.7,8.3-8.7l2.4,1.5l-2.4,21.6c-16.6,9.2-35,13.8-55.2,13.8c-10.2,0.1-20.4-1.6-30.1-4.9c-9.1-3.1-17.6-8-24.8-14.4
	c-7.2-6.6-13-14.7-16.8-23.7c-4.1-9.5-6.2-20.3-6.2-32.5c-0.1-10.5,1.7-20.9,5.1-30.8c3.3-9.4,8.7-18,15.7-25.1
	c7-7.1,15.8-12.8,26.5-16.9c10.7-4.1,23.3-6.2,37.9-6.2c8.6,0,17.3,0.8,25.8,2.5c8.7,1.9,17.2,4.7,25.3,8.4L131,504.5z"/>
<path class="st0" d="M243.8,599.5l-9.2-23.2c-4.7-0.3-9.3-0.5-14-0.7c-4.7-0.1-9.3-0.2-14-0.2c-4.4,0-8.7,0.1-13.1,0.2
	c-4.4,0.1-8.7,0.4-13.1,0.7c-3.5,8.4-6.8,16.9-10,25.3s-5.6,15.8-7.4,22c-1.5-0.3-3.1-0.6-5-0.9c-1.8-0.3-3.6-0.4-5.5-0.4
	c-1.7,0-3.4,0.1-5.1,0.4l-4.7,0.9l25.3-56.3c5.5-12.4,10.5-23.5,14.8-33.3s8.2-18.6,11.5-26.3c3.3-7.7,6-14.5,8.3-20.4
	c2.3-5.9,4-11.1,5.4-15.6c1.2,0.3,2.3,0.5,3.5,0.8c1.2,0.2,2.5,0.3,3.7,0.3c2.4,0,4.7-0.4,7-1.1c2.6,7.4,5.3,14.8,8.2,22.3
	c2.8,7.4,5.7,14.5,8.5,21.4c2.8,6.8,5.5,13.3,8,19.3s4.7,11.3,6.8,15.8c2,4.8,4.4,10.3,7.2,16.5c2.8,6.2,5.6,12.6,8.5,19.2
	c2.9,6.6,5.8,13.2,8.7,19.8s5.6,12.5,8.1,17.8c-1.6-0.1-4.1-0.4-7.4-0.8c-3.2-0.4-6.4-0.5-9.6-0.5c-3,0-5.9,0.2-8.8,0.5
	c-2.8,0.4-5.3,0.6-7.3,0.8L243.8,599.5z M207.8,509.1l-22.3,53.7c3.8,0.1,7.6,0.3,11.4,0.5c3.8,0.2,7.6,0.3,11.4,0.3
	c3.3,0,6.7-0.1,10-0.2c3.3-0.1,6.7-0.4,10-0.7L207.8,509.1z"/>
<path class="st0" d="M303.4,591c2,4.7,4.6,9.1,7.6,13.2c2.3,3,5,5.5,8.2,7.5c2.7,1.7,5.6,2.9,8.7,3.5c3.1,0.6,6.2,0.9,9.3,0.9
	c4,0.1,8-0.6,11.8-2.1c3.3-1.3,6.4-3.2,9-5.7c2.5-2.4,4.5-5.4,5.8-8.6c1.4-3.5,2.1-7.2,2.1-10.9c0.1-3.8-0.6-7.5-2.2-11
	c-1.3-2.7-3-5.2-5.1-7.4c-1.7-1.8-3.8-3.3-6-4.5c-2-1-3.6-1.7-4.6-2.2c-3.1-1.3-6.8-2.9-11.2-4.6c-4.4-1.7-8.2-3.2-11.2-4.6
	c-4.7-2-9.1-4.5-13.2-7.4c-3.3-2.4-6.2-5.3-8.5-8.6c-2.1-3.1-3.6-6.6-4.5-10.3c-0.9-4-1.3-8.2-1.3-12.3c0-5.1,0.9-10.1,2.4-15
	c1.6-5.2,4.4-10,8.2-14.1c4.4-4.6,9.7-8.1,15.6-10.5c6.5-2.8,14.8-4.1,24.7-4.2c8,0,14.7,0.9,20.1,2.6c5.5,1.8,10.9,3.9,16.2,6.3
	c-1.2,2.6-2.1,4.8-2.7,6.5c-0.7,1.7-1.2,3.3-1.6,4.7c-0.4,1.4-0.8,2.8-1.2,4.3c-0.4,1.5-0.8,3.2-1.2,5.2h-3.1
	c-1.4-5.9-5.1-11-10.3-14.2c-5.5-3.3-11.9-4.9-18.3-4.8c-8.6,0-15,2.3-19.3,7c-4.2,4.5-6.5,10.4-6.4,16.6c-0.3,6.6,2.7,13,8,17
	c2.9,2.2,6.1,4.1,9.5,5.5c3.8,1.6,8.1,3.3,12.9,5.2c4.2,1.6,7.8,3,10.8,4.2c3,1.2,5.6,2.4,8,3.6c2.1,1,4.1,2.2,6,3.6
	c1.8,1.3,3.4,2.8,4.9,4.5c2.2,2.3,4.1,4.9,5.6,7.8c1.3,2.6,2.4,5.2,3.2,8c0.7,2.4,1.2,4.9,1.5,7.4c0.3,1.9,0.4,3.8,0.4,5.7
	c0,5.7-1.1,11.4-3,16.8c-2.1,5.8-5.4,11-9.7,15.4c-4.9,4.9-10.7,8.7-17.1,11.2c-7,2.9-15.5,4.4-25.5,4.4c-4.4,0-8.8-0.4-13.2-1.2
	c-3.8-0.7-7.6-1.7-11.3-3c-3.4-1.2-6.5-2.4-9.3-3.6c-2.8-1.2-5.1-2.4-7-3.4c0.9-2.8,1.6-5.1,2.2-7.1c0.5-1.8,1-3.7,1.3-5.6
	c0.3-1.7,0.5-3.5,0.8-5.3c0.2-1.8,0.5-4,0.8-6.7L303.4,591L303.4,591z"/>
<path class="st0" d="M420.6,591c2,4.7,4.6,9.1,7.6,13.2c2.3,3,5,5.5,8.2,7.5c2.7,1.7,5.6,2.9,8.7,3.5c3.1,0.6,6.2,0.9,9.3,0.9
	c4,0.1,8-0.6,11.8-2.1c3.3-1.3,6.4-3.2,9-5.7c2.5-2.4,4.5-5.4,5.8-8.6c1.4-3.5,2.1-7.2,2.1-10.9c0.1-3.8-0.6-7.5-2.2-11
	c-1.3-2.7-3-5.2-5.1-7.4c-1.7-1.8-3.8-3.3-6-4.5c-2-1-3.6-1.7-4.6-2.2c-3.1-1.3-6.8-2.9-11.2-4.6s-8.2-3.2-11.2-4.6
	c-4.7-2-9.1-4.5-13.2-7.4c-3.3-2.4-6.2-5.3-8.5-8.6c-2.1-3.1-3.6-6.6-4.5-10.3c-0.9-4-1.3-8.2-1.3-12.3c0-5.1,0.9-10.1,2.4-15
	c1.6-5.2,4.4-10,8.2-14.1c4.4-4.6,9.7-8.1,15.6-10.5c6.5-2.8,14.8-4.1,24.7-4.2c8,0,14.7,0.9,20.1,2.6c5.5,1.8,10.9,3.9,16.1,6.3
	c-1.2,2.6-2.1,4.8-2.7,6.5c-0.7,1.7-1.2,3.3-1.6,4.7c-0.4,1.4-0.8,2.8-1.2,4.3c-0.4,1.5-0.8,3.2-1.2,5.2h-3
	c-1.4-5.9-5.1-11-10.3-14.2c-5.5-3.3-11.9-4.9-18.3-4.8c-8.6,0-15,2.3-19.3,7c-4.2,4.5-6.5,10.4-6.4,16.6c-0.3,6.6,2.7,13,8,17
	c2.9,2.2,6.1,4.1,9.5,5.5c3.8,1.6,8.1,3.3,12.9,5.2c4.2,1.6,7.8,3,10.8,4.2c3,1.2,5.6,2.4,8,3.6c2.1,1,4.1,2.2,6,3.6
	c1.8,1.3,3.4,2.8,4.9,4.5c2.2,2.3,4.1,4.9,5.6,7.8c1.3,2.6,2.4,5.2,3.2,8c0.7,2.4,1.2,4.9,1.5,7.4c0.3,1.9,0.4,3.8,0.4,5.7
	c0,5.7-1.1,11.4-3,16.8c-2.1,5.8-5.4,11-9.7,15.4c-4.9,4.9-10.7,8.7-17.1,11.2c-7,2.9-15.5,4.4-25.5,4.4c-4.4,0-8.8-0.4-13.2-1.2
	c-3.8-0.7-7.6-1.7-11.3-3c-3.4-1.2-6.5-2.4-9.3-3.6s-5.1-2.4-7-3.4c0.9-2.8,1.6-5.1,2.2-7.1c0.5-1.8,1-3.7,1.3-5.6
	c0.3-1.7,0.5-3.5,0.8-5.3c0.2-1.8,0.5-4,0.8-6.7L420.6,591L420.6,591z"/>
<path class="st0" d="M28.4,669.4c0,1-0.1,1.9-0.4,2.9c-0.2,0.8-0.6,1.5-1,2.2c-0.3,0.6-0.7,1.1-1.1,1.5l-0.9,1
	c-0.4,0.4-0.9,0.8-1.4,1.2c-0.6,0.4-1.3,0.8-2,1.1c-0.9,0.4-1.9,0.6-2.9,0.8c-1.3,0.2-2.7,0.3-4,0.3c-1.2,0-2.4,0-3.6-0.1
	C9.9,680,8.7,680,7.4,680c-0.9,0-1.8,0-2.8,0.1c-0.9,0.1-1.8,0.1-2.8,0.2c0.2-3.3,0.3-6.8,0.3-10.3c0.1-3.6,0.1-6.9,0.1-10
	c0-3.2,0-6.3-0.1-9.5s-0.2-6.3-0.4-9.5c0.7,0.1,1.4,0.1,2.1,0.2s1.6,0.1,2.9,0.1c0.3,0,0.8,0,1.6-0.1c0.8,0,1.6-0.1,2.4-0.1
	c0.8,0,1.6,0,2.4-0.1c0.8,0,1.3-0.1,1.6-0.1c1.5,0,3.1,0.1,4.6,0.4c1.3,0.2,2.6,0.7,3.8,1.4c1.1,0.7,2,1.7,2.6,2.8
	c0.7,1.4,1.1,3,1,4.6c0,1.2-0.3,2.5-0.9,3.5c-0.6,1-1.3,1.9-2.2,2.7c-0.9,0.8-2,1.4-3.1,1.8c-1.1,0.5-2.3,0.8-3.5,0.9
	c1.5,0.1,3,0.4,4.4,0.8c1.3,0.3,2.5,0.9,3.6,1.8c1,0.8,1.9,1.8,2.4,3C28.2,666.2,28.5,667.8,28.4,669.4z M9.2,657.9l1.2,0.1
	c0.4,0,0.8,0,1.1,0c2.1,0.1,4.2-0.5,5.8-1.9c1.4-1.5,2.2-3.6,2-5.7c0.1-1.7-0.5-3.4-1.6-4.7c-1.2-1.3-2.8-1.9-4.5-1.8
	c-1.3,0-2.7,0.1-4,0.2c0,0.8-0.1,1.5-0.1,2.3c0,0.8,0,1.6,0,2.3L9.2,657.9L9.2,657.9z M9.2,672.3c0,0.5,0,1.2,0,2.1s0,1.8,0.1,2.6
	l1.6,0.2c0.5,0.1,1,0.1,1.6,0.1c2.3,0.2,4.5-0.6,6.2-2c1.5-1.3,2.2-3.4,2.2-6.2c0-1.4-0.2-2.8-0.7-4.1c-0.4-1-1.1-1.9-1.9-2.6
	c-0.9-0.7-1.9-1.2-3-1.4c-1.3-0.3-2.7-0.4-4-0.4c-0.7,0-1.4,0.1-2.1,0.2L9.2,672.3L9.2,672.3z"/>
<path class="st0" d="M43,645.3c-0.1,2.2-0.1,4.6-0.1,7.2c0,2.6,0,5.1,0,7.6c0,2.3,0,4.2,0.1,5.6c0,1.5,0.1,2.7,0.2,3.6
	c0.1,0.8,0.3,1.6,0.5,2.3c0.2,0.6,0.6,1.2,1,1.8c0.9,1.2,2.1,2.1,3.5,2.6c1.7,0.6,3.5,1,5.3,0.9c2.1,0,4.2-0.5,6-1.6
	c1.6-1,2.9-2.5,3.5-4.3c0.1-0.3,0.2-0.7,0.3-1.1c0.1-0.5,0.2-1,0.2-1.5c0.1-0.6,0.1-1.3,0.1-2.2s0.1-1.8,0.1-3c0-3.7,0-7.5-0.1-11.2
	s-0.2-7.5-0.5-11.2l1.3,0.2c0.4,0.1,0.9,0.1,1.3,0.1c0.5,0,0.9,0,1.4-0.1l1.3-0.2l-0.2,2.8c-0.1,1.2-0.1,2.8-0.2,4.8
	c-0.1,2-0.1,4-0.1,6.2c0,2.1-0.1,4.2-0.1,6.3c0,2.1-0.1,3.8-0.1,5.3c0,1.5-0.2,3-0.4,4.4c-0.2,1.2-0.6,2.3-1.1,3.3
	c-0.5,0.9-1.1,1.8-1.8,2.5c-0.8,0.8-1.6,1.4-2.5,2c-1.4,0.9-3,1.6-4.7,1.9c-1.6,0.4-3.3,0.6-5,0.6c-1.8,0-3.5-0.2-5.3-0.5
	c-1.7-0.3-3.4-0.9-5-1.7c-1.6-0.8-2.9-2-4-3.4c-1.2-1.6-1.9-3.5-2.1-5.5c-0.1-0.5-0.1-1.1-0.1-1.6v-17c0-0.7,0-1.5,0-2.4
	s0-1.8-0.1-2.7c0-0.9,0-1.8-0.1-2.7c-0.1-0.9-0.1-1.7-0.1-2.4l2,0.2c0.7,0.1,1.3,0.1,2,0.1c0.6,0,1.3,0,1.9-0.1l1.8-0.2L43,645.3z"
	/>
<path class="st0" d="M77.2,671.7c0.5,1.2,1.2,2.4,2,3.5c0.6,0.8,1.3,1.5,2.1,2c0.7,0.4,1.5,0.8,2.3,0.9c0.8,0.2,1.6,0.2,2.4,0.2
	c1.1,0,2.1-0.2,3.1-0.5c0.9-0.3,1.7-0.8,2.4-1.5c0.7-0.6,1.2-1.4,1.5-2.3c0.4-0.9,0.6-1.9,0.5-2.9c0-1-0.2-2-0.6-2.9
	c-0.3-0.7-0.8-1.4-1.4-2c-0.5-0.5-1-0.9-1.6-1.2c-0.5-0.3-0.9-0.5-1.2-0.6c-0.8-0.3-1.8-0.7-3-1.2s-2.2-0.9-3-1.2
	c-1.2-0.5-2.4-1.2-3.5-2c-0.9-0.6-1.6-1.4-2.2-2.3c-0.6-0.8-0.9-1.7-1.2-2.7c-0.2-1.1-0.4-2.2-0.3-3.2c0-1.3,0.2-2.7,0.6-3.9
	c0.4-1.4,1.2-2.6,2.1-3.7c1.2-1.2,2.6-2.1,4.1-2.8c2.1-0.8,4.3-1.2,6.5-1.1c1.8,0,3.6,0.2,5.3,0.7c1.4,0.5,2.9,1,4.2,1.7
	c-0.3,0.7-0.5,1.2-0.7,1.7s-0.3,0.9-0.4,1.2c-0.1,0.4-0.2,0.7-0.3,1.1c-0.1,0.4-0.2,0.8-0.2,1.3h-0.8c-0.4-1.6-1.3-2.9-2.7-3.7
	c-1.5-0.9-3.1-1.3-4.8-1.3c-1.9-0.1-3.7,0.5-5.1,1.8c-1.1,1.2-1.7,2.7-1.7,4.3c0,0.9,0.2,1.8,0.5,2.6c0.4,0.7,0.9,1.4,1.5,1.9
	c0.8,0.6,1.6,1.1,2.5,1.4c1,0.4,2.1,0.9,3.4,1.4c1.1,0.4,2.1,0.8,2.8,1.1c0.8,0.3,1.5,0.6,2.1,1c0.6,0.3,1.1,0.6,1.6,1
	c0.5,0.3,0.9,0.7,1.3,1.2c0.6,0.6,1.1,1.3,1.5,2c0.3,0.7,0.6,1.4,0.8,2.1c0.2,0.6,0.3,1.3,0.4,2c0.1,0.5,0.1,1,0.1,1.5
	c0,1.5-0.3,3-0.8,4.4c-0.6,1.5-1.4,2.9-2.5,4c-1.3,1.3-2.8,2.3-4.5,3c-2.1,0.8-4.4,1.2-6.7,1.2c-1.2,0-2.3-0.1-3.5-0.3
	c-1-0.2-2-0.4-3-0.8c-0.9-0.3-1.7-0.6-2.4-1s-1.3-0.6-1.8-0.9c0.2-0.7,0.4-1.3,0.6-1.9c0.1-0.5,0.3-1,0.3-1.5
	c0.1-0.5,0.1-0.9,0.2-1.4s0.1-1.1,0.2-1.8L77.2,671.7L77.2,671.7z"/>
<path class="st0" d="M108.8,654.2c0-1.8,0-3.8-0.1-5.9s-0.2-4.5-0.5-7.3c0.5,0.1,1.2,0.2,2.1,0.2c0.9,0.1,1.5,0.1,2,0.1
	c0.7,0,1.3,0,2-0.1l2.1-0.2c-0.2,1.1-0.3,2.4-0.4,4.1c-0.1,1.7-0.2,3.4-0.2,5.3c0,1.9-0.1,3.7-0.1,5.6v5c0,4.3,0,8,0.1,11.1
	c0.1,3.1,0.2,5.9,0.5,8.2c-0.7,0-1.3-0.1-2-0.2c-0.7-0.1-1.3-0.1-2-0.1c-0.7,0-1.4,0-2.1,0.1c-0.7,0.1-1.4,0.1-2.1,0.2
	c0.3-3.4,0.5-7.4,0.5-11.9C108.8,663.9,108.8,659.2,108.8,654.2z"/>
<path class="st0" d="M126.4,657.1c0-2.7,0-5.4,0-8.1s0-5.3-0.1-8c0.2,0,0.5,0.1,0.7,0.1s0.5,0,0.7,0s0.5,0,0.7,0l0.7-0.1l4.1,4.4
	c1.3,1.5,2.7,2.9,4.1,4.3s2.9,2.9,4.4,4.5c1.5,1.5,3.1,3.2,4.9,4.8l6.8,6.7c0.5,0.5,1,1,1.4,1.3c0.4,0.3,0.9,0.7,1.5,1.2v-12.7
	c0-2.4-0.1-4.9-0.2-7.3c-0.1-2.4-0.3-4.8-0.5-7.2l1.1,0.2c0.5,0.1,0.9,0.1,1.4,0.1c0.5,0,0.9,0,1.4-0.1l1.1-0.2
	c-0.1,1.7-0.2,3.3-0.3,4.8c-0.1,1.5-0.2,2.9-0.2,4.4c0,1.5-0.1,3-0.1,4.6s0,3.5,0,5.6v3.3c0,1.3,0,2.7,0,4.2c0,1.4,0,2.8,0,4.1v4.2
	c0,0.5,0,1,0,1.6c0,0.6,0,1.1,0,1.6v1.3l-0.6-0.1c-0.2,0-0.4,0-0.6,0H158c-0.2,0-0.4,0-0.6,0.1l-4.1-4.4c-1.5-1.6-3.2-3.3-4.8-5
	c-1.7-1.7-3.4-3.4-5.2-5.2c-1.8-1.8-3.5-3.4-5.1-5c-1.6-1.6-3.2-3.1-4.6-4.4c-1.4-1.3-2.6-2.5-3.6-3.4v5.2c0,1.5,0,3,0,4.4
	s0,2.8,0.1,4.1c0,1.3,0,2.8,0.1,4.3c0,0.8,0,1.5,0,2.1s0,1.1,0.1,1.8c0,0.6,0.1,1.3,0.1,2.2c0.1,0.8,0.1,1.9,0.3,3.2
	c-0.3,0-0.7-0.1-1.2-0.2c-0.5-0.1-0.9-0.1-1.4-0.1c-0.4,0-0.8,0-1.2,0.1l-1.1,0.2l0.5-8c0-0.4,0.1-0.9,0.1-1.6s0-1.4,0.1-2.1
	s0-1.5,0-2.1V657L126.4,657.1z"/>
<path class="st0" d="M177.2,658h2.7c1.1,0,2.2,0,3.4-0.1s2.3-0.1,3.4-0.1c1.1-0.1,2-0.1,2.8-0.2c-0.1,0.3-0.1,0.6-0.2,1
	c-0.1,0.4-0.1,0.7-0.1,1.1c0,0.7,0.1,1.3,0.3,2c-0.8-0.1-1.5-0.1-2.2-0.2l-2.1-0.1l-4-0.1h-4v15.5h2.1l3.5-0.1l4.1-0.1
	c1.4,0,2.8-0.1,4-0.2c-0.2,0.6-0.3,1.2-0.3,1.9c0,0.7,0.1,1.4,0.3,2.1c-3.4-0.2-7-0.3-10.5-0.3c-3.5,0-7.1,0.1-10.8,0.3
	c0.1-1.2,0.1-2.4,0.2-3.6c0-1.2,0.1-2.4,0.1-3.6c0-0.8,0.1-1.9,0.1-3.1c0-1.2,0-2.4,0.1-3.7c0-1.2,0-2.4,0.1-3.5c0-1.1,0-2,0-2.7
	c0-0.6,0-1.7,0-3.2c0-1.5,0-3.2-0.1-5.1c0-1.9-0.1-3.8-0.1-5.8c-0.1-1.9-0.1-3.6-0.3-5.1l2.4,0.1l2.7,0.1l2.8,0.1h2.5
	c1.3,0,2.9,0,4.7-0.1l5.8-0.2l-0.2,0.9c-0.1,0.3-0.1,0.6-0.1,0.9c0,0.7,0.1,1.4,0.3,2.1l-5.4-0.3l-1.4-0.1c-0.4,0-0.9,0-1.4,0h-5.2
	V658L177.2,658z"/>
<path class="st0" d="M198.2,671.7c0.5,1.2,1.2,2.4,2,3.5c0.6,0.8,1.3,1.5,2.1,2c0.7,0.4,1.5,0.8,2.3,0.9c0.8,0.2,1.6,0.2,2.4,0.2
	c1.1,0,2.1-0.2,3.1-0.5c0.9-0.3,1.7-0.8,2.4-1.5c0.7-0.6,1.2-1.4,1.5-2.3c0.4-0.9,0.6-1.9,0.5-2.9c0-1-0.2-2-0.6-2.9
	c-0.3-0.7-0.8-1.4-1.4-2c-0.5-0.5-1-0.9-1.6-1.2c-0.5-0.3-0.9-0.5-1.2-0.6c-0.8-0.3-1.8-0.7-3-1.2c-1.2-0.5-2.2-0.9-3-1.2
	c-1.2-0.5-2.4-1.2-3.5-2c-0.9-0.6-1.6-1.4-2.2-2.3c-0.6-0.8-0.9-1.7-1.2-2.7c-0.2-1.1-0.4-2.2-0.3-3.2c0-1.3,0.2-2.7,0.6-3.9
	c0.4-1.4,1.2-2.6,2.1-3.7c1.2-1.2,2.6-2.1,4.1-2.8c2.1-0.8,4.3-1.2,6.5-1.1c1.8,0,3.6,0.2,5.3,0.7c1.4,0.5,2.9,1,4.2,1.7
	c-0.3,0.7-0.5,1.2-0.7,1.7s-0.3,0.9-0.4,1.2c-0.1,0.4-0.2,0.7-0.3,1.1c-0.1,0.4-0.2,0.8-0.2,1.3h-0.8c-0.4-1.6-1.3-2.9-2.7-3.7
	c-1.5-0.9-3.1-1.3-4.8-1.3c-1.9-0.1-3.7,0.5-5.1,1.8c-1.1,1.2-1.7,2.7-1.7,4.3c0,0.9,0.2,1.8,0.5,2.6c0.4,0.7,0.9,1.4,1.5,1.9
	c0.8,0.6,1.6,1.1,2.5,1.4c1,0.4,2.1,0.9,3.4,1.4c1.1,0.4,2.1,0.8,2.8,1.1c0.8,0.3,1.5,0.6,2.1,1c0.6,0.3,1.1,0.6,1.6,1
	c0.5,0.3,0.9,0.7,1.3,1.2c0.6,0.6,1.1,1.3,1.5,2c0.3,0.7,0.6,1.4,0.8,2.1c0.2,0.6,0.3,1.3,0.4,2c0.1,0.5,0.1,1,0.1,1.5
	c0,1.5-0.3,3-0.8,4.4c-0.6,1.5-1.4,2.9-2.5,4c-1.3,1.3-2.8,2.3-4.5,3c-2.1,0.8-4.4,1.2-6.7,1.2c-1.2,0-2.3-0.1-3.5-0.3
	c-1-0.2-2-0.4-3-0.8c-0.9-0.3-1.7-0.6-2.4-1c-0.7-0.3-1.3-0.6-1.8-0.9c0.2-0.7,0.4-1.3,0.6-1.9c0.1-0.5,0.3-1,0.3-1.5
	c0.1-0.5,0.1-0.9,0.2-1.4s0.1-1.1,0.2-1.8L198.2,671.7L198.2,671.7z"/>
<path class="st0" d="M229,671.7c0.5,1.2,1.2,2.4,2,3.5c0.6,0.8,1.3,1.5,2.1,2c0.7,0.4,1.5,0.8,2.3,0.9c0.8,0.2,1.6,0.2,2.4,0.2
	c1.1,0,2.1-0.2,3.1-0.5c0.9-0.3,1.7-0.8,2.4-1.5c0.7-0.6,1.2-1.4,1.5-2.3c0.4-0.9,0.6-1.9,0.5-2.9c0-1-0.2-2-0.6-2.9
	c-0.3-0.7-0.8-1.4-1.4-2c-0.5-0.5-1-0.9-1.6-1.2c-0.5-0.3-0.9-0.5-1.2-0.6c-0.8-0.3-1.8-0.7-3-1.2c-1.2-0.5-2.2-0.9-3-1.2
	c-1.2-0.5-2.4-1.2-3.5-2c-0.9-0.6-1.6-1.4-2.2-2.3c-0.6-0.8-0.9-1.7-1.2-2.7c-0.2-1.1-0.4-2.2-0.3-3.2c0-1.3,0.2-2.7,0.6-3.9
	c0.4-1.4,1.2-2.6,2.1-3.7c1.2-1.2,2.6-2.1,4.1-2.8c2.1-0.8,4.3-1.2,6.5-1.1c1.8,0,3.6,0.2,5.3,0.7c1.4,0.5,2.9,1,4.2,1.7
	c-0.3,0.7-0.5,1.2-0.7,1.7c-0.2,0.5-0.3,0.9-0.4,1.2c-0.1,0.4-0.2,0.7-0.3,1.1s-0.2,0.8-0.2,1.3h-0.8c-0.4-1.6-1.3-2.9-2.7-3.7
	c-1.5-0.9-3.1-1.3-4.8-1.3c-1.9-0.1-3.7,0.5-5.1,1.8c-1.1,1.2-1.7,2.7-1.7,4.3c0,0.9,0.2,1.8,0.5,2.6c0.4,0.7,0.9,1.4,1.5,1.9
	c0.8,0.6,1.6,1.1,2.5,1.4c1,0.4,2.1,0.9,3.4,1.4c1.1,0.4,2.1,0.8,2.8,1.1c0.8,0.3,1.5,0.6,2.1,1c0.6,0.3,1.1,0.6,1.6,1
	c0.5,0.3,0.9,0.7,1.3,1.2c0.6,0.6,1.1,1.3,1.5,2c0.3,0.7,0.6,1.4,0.8,2.1c0.2,0.6,0.3,1.3,0.4,2c0.1,0.5,0.1,1,0.1,1.5
	c0,1.5-0.3,3-0.8,4.4c-0.6,1.5-1.4,2.9-2.5,4c-1.3,1.3-2.8,2.3-4.5,3c-2.1,0.8-4.4,1.2-6.7,1.2c-1.2,0-2.3-0.1-3.5-0.3
	c-1-0.2-2-0.4-3-0.8c-0.9-0.3-1.7-0.6-2.4-1c-0.7-0.3-1.3-0.6-1.8-0.9c0.2-0.7,0.4-1.3,0.6-1.9c0.1-0.5,0.3-1,0.3-1.5
	c0.1-0.5,0.1-0.9,0.2-1.4s0.1-1.1,0.2-1.8L229,671.7L229,671.7z"/>
<path class="st0" d="M274.6,671.7c0.5,1.2,1.2,2.4,2,3.5c0.6,0.8,1.3,1.5,2.1,2c0.7,0.4,1.5,0.8,2.3,0.9c0.8,0.2,1.6,0.2,2.4,0.2
	c1.1,0,2.1-0.2,3.1-0.5c0.9-0.3,1.7-0.8,2.4-1.5c0.7-0.6,1.2-1.4,1.5-2.3c0.4-0.9,0.6-1.9,0.5-2.9c0-1-0.2-2-0.6-2.9
	c-0.3-0.7-0.8-1.4-1.4-2c-0.5-0.5-1-0.9-1.6-1.2c-0.5-0.3-0.9-0.5-1.2-0.6c-0.8-0.3-1.8-0.7-3-1.2c-1.2-0.5-2.2-0.9-3-1.2
	c-1.2-0.5-2.4-1.2-3.5-2c-0.9-0.6-1.6-1.4-2.2-2.3c-0.6-0.8-0.9-1.7-1.2-2.7c-0.2-1.1-0.4-2.2-0.3-3.2c0-1.3,0.2-2.7,0.6-3.9
	c0.4-1.4,1.2-2.6,2.1-3.7c1.2-1.2,2.6-2.1,4.1-2.8c2.1-0.8,4.3-1.2,6.5-1.1c1.8,0,3.6,0.2,5.3,0.7c1.4,0.5,2.9,1,4.2,1.7
	c-0.3,0.7-0.5,1.2-0.7,1.7s-0.3,0.9-0.4,1.2c-0.1,0.4-0.2,0.7-0.3,1.1s-0.2,0.8-0.2,1.3h-0.8c-0.4-1.6-1.3-2.9-2.7-3.7
	c-1.5-0.9-3.1-1.3-4.8-1.3c-1.9-0.1-3.7,0.5-5.1,1.8c-1.1,1.2-1.7,2.7-1.7,4.3c0,0.9,0.2,1.8,0.5,2.6c0.4,0.7,0.9,1.4,1.5,1.9
	c0.8,0.6,1.6,1.1,2.5,1.4c1,0.4,2.1,0.9,3.4,1.4c1.1,0.4,2.1,0.8,2.8,1.1c0.8,0.3,1.5,0.6,2.1,1c0.6,0.3,1.1,0.6,1.6,1
	c0.5,0.3,0.9,0.7,1.3,1.2c0.6,0.6,1.1,1.3,1.5,2c0.3,0.7,0.6,1.4,0.8,2.1c0.2,0.6,0.3,1.3,0.4,2c0.1,0.5,0.1,1,0.1,1.5
	c0,1.5-0.3,3-0.8,4.4c-0.6,1.5-1.4,2.9-2.5,4c-1.3,1.3-2.8,2.3-4.5,3c-2.1,0.8-4.4,1.2-6.7,1.2c-1.2,0-2.3-0.1-3.5-0.3
	c-1-0.2-2-0.4-3-0.8c-0.9-0.3-1.7-0.6-2.4-1c-0.7-0.3-1.3-0.6-1.8-0.9c0.2-0.7,0.4-1.3,0.6-1.9c0.1-0.5,0.3-1,0.3-1.5
	c0.1-0.5,0.1-0.9,0.2-1.4s0.1-1.1,0.2-1.8L274.6,671.7L274.6,671.7z"/>
<path class="st0" d="M337.6,649H337c-0.2-0.3-0.5-0.8-0.9-1.4c-0.5-0.7-1.1-1.3-1.8-1.8c-1-0.7-2.1-1.2-3.2-1.5
	c-1.7-0.5-3.4-0.7-5.1-0.7c-4.8,0-8.5,1.5-10.9,4.5c-2.5,3-3.7,7.2-3.7,12.7c0,0.5,0,1.2,0.1,2.1c0,1,0.2,2,0.4,3
	c0.2,1.2,0.6,2.3,1,3.4c0.5,1.3,1.2,2.4,2,3.5c0.5,0.7,1.1,1.4,1.8,2c0.7,0.6,1.5,1.2,2.3,1.7c0.9,0.5,1.8,0.9,2.8,1.2
	c1.1,0.3,2.3,0.4,3.5,0.4c1.6,0,3.2-0.2,4.7-0.6c1.3-0.4,2.5-0.9,3.6-1.5c1-0.6,1.9-1.3,2.8-2.1c0.8-0.7,1.5-1.5,2.2-2.3l0.6,0.4
	l-0.6,5.7c-4.4,2.4-9.4,3.7-14.5,3.6c-2.7,0-5.4-0.4-7.9-1.3c-2.4-0.8-4.6-2.1-6.5-3.8c-1.9-1.7-3.4-3.9-4.4-6.2
	c-1.1-2.7-1.7-5.6-1.6-8.5c0-2.8,0.4-5.5,1.3-8.1c0.9-2.5,2.3-4.7,4.1-6.6c2-2,4.4-3.5,7-4.4c3.2-1.2,6.6-1.7,9.9-1.6
	c2.3,0,4.5,0.2,6.8,0.7c2.3,0.5,4.5,1.2,6.7,2.2L337.6,649z"/>
<path class="st0" d="M372.2,661c-1.6-0.1-3.1-0.1-4.6-0.2c-1.5,0-3.1-0.1-4.6-0.1c-1.6,0-3.3,0-4.9,0.1c-1.6,0-3.2,0.1-4.9,0.2v5.7
	c0,1.8,0,3.4,0,4.7c0,1.3,0,2.5,0.1,3.5c0.1,1,0.1,1.9,0.2,2.8c0.1,0.8,0.1,1.7,0.2,2.6c-0.4,0-1-0.1-1.7-0.2
	c-0.7-0.1-1.5-0.1-2.3-0.1c-0.7,0-1.3,0-2,0.1l-2,0.2c0.2-4.4,0.4-8.7,0.4-13s0.1-8.6,0.1-13c0-2.3,0-4.5-0.1-6.7
	c-0.1-2.2-0.2-4.4-0.4-6.6c0.6,0.1,1.3,0.2,2.2,0.2c0.9,0.1,1.5,0.1,2,0.1h1l1.2-0.1l1.1-0.1c0.3,0,0.6-0.1,0.8-0.1
	c-0.1,0.8-0.1,1.6-0.2,2.4c-0.1,0.8-0.1,1.8-0.2,3c-0.1,1.2-0.1,2.6-0.1,4.4c0,1.7,0,3.9,0,6.6c1.4,0.1,2.9,0.1,4.3,0.2
	s2.9,0.1,4.3,0.1c1.8,0,3.5,0,5.2-0.1s3.4-0.1,5.1-0.3v-2c0-0.9,0-1.9,0-3s0-2.1,0-3s0-1.6,0-1.9v-1.1c0-0.3,0-0.7-0.1-1.2
	s-0.1-1-0.1-1.6s-0.1-1.5-0.1-2.5c0.5,0.1,1.2,0.2,2,0.2c0.8,0.1,1.5,0.1,2.2,0.1c0.5,0,1.2,0,2-0.1c0.8-0.1,1.5-0.1,2-0.2
	c-0.2,1.5-0.3,3.4-0.4,5.7c-0.1,2.3-0.2,4.7-0.2,7.2c-0.1,2.5-0.1,4.9-0.1,7.2c0,2.3,0,4.2,0,5.7c0,2.3,0,4.6,0.1,6.9
	c0,2.2,0.2,4.4,0.5,6.6l-2.1-0.2c-0.7-0.1-1.4-0.1-2.1-0.1c-0.7,0-1.3,0-2,0.1l-2,0.2c0-0.3,0-0.8,0.1-1.7c0.1-0.9,0.1-1.9,0.2-2.9
	c0.1-1.1,0.1-2.1,0.1-3.1c0-1,0.1-1.8,0.1-2.3L372.2,661z"/>
<path class="st0" d="M409,640.5c2.6,0,5.3,0.4,7.8,1.1c2.5,0.7,4.8,1.9,6.8,3.5c2,1.7,3.7,3.7,4.8,6.1c1.3,2.8,1.9,5.8,1.8,8.8
	c0,3-0.5,5.9-1.5,8.7c-1,2.5-2.4,4.7-4.3,6.6c-1.9,1.9-4.2,3.3-6.8,4.2c-2.8,1-5.7,1.5-8.7,1.5c-2.8,0-5.7-0.4-8.4-1.3
	c-2.5-0.8-4.8-2.1-6.8-3.8c-2-1.7-3.5-3.8-4.6-6.2c-1.1-2.6-1.7-5.5-1.7-8.4c-0.1-3.2,0.5-6.4,1.8-9.4c1.1-2.5,2.7-4.7,4.7-6.5
	c2-1.7,4.3-3,6.8-3.8C403.5,640.9,406.3,640.5,409,640.5z M395.3,660.8c0,2.1,0.2,4.3,0.7,6.3c0.4,2,1.2,3.9,2.3,5.6
	c1.1,1.6,2.5,3,4.2,4c1.9,1.1,4.1,1.6,6.3,1.5c2.2,0.1,4.3-0.5,6.2-1.5c1.7-1,3.1-2.4,4.2-4c1.1-1.7,1.9-3.6,2.4-5.6
	c0.5-2,0.7-4.1,0.8-6.2c0-2.2-0.2-4.5-0.7-6.7c-0.4-2-1.2-3.8-2.3-5.5c-1-1.6-2.5-2.9-4.2-3.8c-2-1-4.2-1.5-6.4-1.4
	c-2.2-0.1-4.4,0.5-6.3,1.6c-1.7,1.1-3.1,2.5-4.2,4.1c-1.1,1.7-1.9,3.6-2.3,5.6C395.6,656.8,395.4,658.8,395.3,660.8L395.3,660.8z"/>
<path class="st0" d="M457.9,640.5c2.6,0,5.3,0.4,7.8,1.1c2.5,0.7,4.8,1.9,6.8,3.5c2,1.7,3.7,3.7,4.8,6.1c1.3,2.8,1.9,5.8,1.8,8.8
	c0,3-0.5,5.9-1.5,8.7c-1,2.5-2.4,4.7-4.3,6.6c-1.9,1.9-4.2,3.3-6.8,4.2c-2.8,1-5.7,1.5-8.7,1.5c-2.8,0-5.7-0.4-8.4-1.3
	c-2.5-0.8-4.8-2.1-6.8-3.8c-2-1.7-3.5-3.8-4.6-6.2c-1.1-2.6-1.7-5.5-1.7-8.4c-0.1-3.2,0.5-6.4,1.8-9.4c1.1-2.5,2.7-4.7,4.7-6.5
	c2-1.7,4.3-3,6.8-3.8C452.3,640.9,455.1,640.5,457.9,640.5z M444.2,660.8c0,2.1,0.2,4.3,0.7,6.3c0.4,2,1.2,3.9,2.3,5.6
	c1.1,1.6,2.5,3,4.2,4c1.9,1.1,4.1,1.6,6.3,1.5c2.2,0.1,4.3-0.5,6.2-1.5c1.7-1,3.1-2.4,4.2-4c1.1-1.7,1.9-3.6,2.4-5.6
	c0.5-2,0.7-4.1,0.8-6.2c0-2.2-0.2-4.5-0.7-6.7c-0.4-2-1.2-3.9-2.3-5.6c-1-1.6-2.5-2.9-4.2-3.8c-2-1-4.2-1.5-6.4-1.4
	c-2.2-0.1-4.4,0.5-6.3,1.6c-1.7,1.1-3.1,2.5-4.2,4.1c-1.1,1.7-1.9,3.6-2.3,5.6C444.4,656.8,444.2,658.8,444.2,660.8z"/>
<path class="st0" d="M487.4,656.6V655c0-0.5,0-1,0-1.5s0-1.2-0.1-2c0-0.8,0-1.8-0.1-3.1c0-0.3,0-0.8,0-1.5c0-0.7,0-1.5-0.1-2.2
	c0-0.8-0.1-1.5-0.1-2.2s0-1.2,0-1.5c0.7,0.1,1.3,0.2,2,0.3c0.6,0,1.3,0.1,2,0.1s1.4,0,2-0.1c0.6-0.1,1.3-0.1,2-0.3
	c-0.1,2.2-0.2,4.3-0.3,6.3c-0.1,2-0.1,4-0.2,6c-0.1,2-0.1,4-0.1,6s0,4.2,0,6.4c0,2,0,3.9,0.1,5.8c0,1.8,0.1,3.6,0.1,5.1h3.3
	c1.1,0,2.3,0,3.7-0.1c1.4,0,2.7-0.1,4-0.2c1.3-0.1,2.4-0.2,3.3-0.3c-0.1,0.3-0.1,0.6-0.2,0.9c-0.1,0.5-0.1,0.9-0.1,1.4
	c0,0.3,0,0.7,0.1,1c0.1,0.3,0.1,0.6,0.2,1l-2.5-0.1l-2.9-0.1l-3-0.1H498c-1.8,0-3.6,0-5.3,0.1c-1.7,0.1-3.6,0.1-5.7,0.3
	c0-0.2,0-0.6,0-1.4c0-0.8,0-1.7,0.1-2.8c0-1.1,0.1-2.3,0.1-3.5c0-1.2,0.1-2.4,0.1-3.5c0-1.1,0.1-2.1,0.1-2.9c0-0.8,0-1.3,0-1.6
	L487.4,656.6L487.4,656.6z"/>
<path class="st0" d="M21.2,720.2c-0.5,0.3-1.1,0.5-1.7,0.6c-0.7,0.2-1.4,0.3-2.2,0.5c-0.9,0.1-1.7,0.2-2.6,0.2
	c-1.8,0-3.6-0.3-5.3-0.8c-1.6-0.5-3-1.4-4.2-2.5c-1.2-1.2-2.1-2.5-2.8-4.1c-1.3-3.5-1.3-7.5,0-11c0.6-1.6,1.6-2.9,2.8-4.1
	c1.2-1.1,2.7-2,4.3-2.5c1.8-0.6,3.7-0.9,5.5-0.9c1.5,0,2.9,0.2,4.4,0.5c1.2,0.3,2.4,0.7,3.5,1.2c-0.2,0.4-0.4,0.9-0.5,1.4
	c-0.1,0.6-0.2,1.1-0.3,1.5l-0.2,0.1c-0.3-0.4-0.6-0.7-1-1c-0.5-0.4-1-0.7-1.5-1c-0.6-0.4-1.3-0.6-2-0.9c-0.8-0.2-1.6-0.4-2.4-0.3
	c-1.4,0-2.7,0.2-4,0.7c-1.2,0.5-2.3,1.2-3.2,2.1c-1,1-1.7,2.3-2.1,3.6c-1,3.4-1,7,0,10.4c0.4,1.4,1.2,2.6,2.1,3.6
	c0.9,0.9,2,1.7,3.2,2.1c1.3,0.5,2.6,0.7,4,0.7c0.8,0,1.6-0.1,2.4-0.3c0.7-0.2,1.4-0.5,2-0.8c0.6-0.3,1.1-0.6,1.7-1
	c0.5-0.4,0.9-0.7,1.2-0.9l0.1,0.2l-0.3,2.2C21.9,719.8,21.5,720,21.2,720.2z"/>
<path class="st0" d="M27.1,700.7c-0.1-1.5-0.1-3.1-0.2-4.7l0.9,0.1c0.6,0.1,1.2,0.1,1.8,0l0.9-0.1c-0.1,1.6-0.1,3.2-0.2,4.7
	c-0.1,1.5-0.1,3.1-0.1,4.7v6.3c0,1.6,0,3.2,0.1,4.7c0.1,1.6,0.1,3.1,0.2,4.6c-0.6,0-1.2-0.1-1.8-0.1c-0.6,0-1.2,0-1.8,0.1
	c0.1-1.5,0.1-3,0.2-4.6s0.1-3.1,0.1-4.7v-6.3C27.2,703.8,27.1,702.3,27.1,700.7z"/>
<path class="st0" d="M41.8,697.9h-2c-0.7,0-1.4,0-2.1,0.1l-2,0.1c-0.7,0-1.2,0.1-1.7,0.2c0.1-0.4,0.2-0.8,0.2-1.2
	c0-0.4-0.1-0.8-0.2-1.1l4.7,0.1c1.5,0,3.1,0,4.7,0s3.2,0,4.7,0l4.7-0.1c-0.1,0.4-0.2,0.8-0.2,1.2c0,0.4,0.1,0.8,0.2,1.1
	c-0.5-0.1-1.1-0.1-1.7-0.2l-2-0.1c-0.7,0-1.4-0.1-2.1-0.1h-2c-0.1,2.5-0.1,5-0.1,7.5v6.3c0,1.6,0,3.2,0.1,4.7
	c0.1,1.6,0.1,3.1,0.2,4.6c-0.6,0-1.2-0.1-1.8-0.1c-0.6,0-1.2,0-1.8,0.1c0.1-1.5,0.1-3,0.2-4.6c0.1-1.5,0.1-3.1,0.1-4.7v-6.3
	C41.9,702.9,41.9,700.4,41.8,697.9z"/>
<path class="st0" d="M61.7,709l-1.6-2.6l-1.8-3l-1.8-3l-1.6-2.6l-1.1-1.7l1,0.1c0.7,0.1,1.3,0.1,2,0l1-0.1c1.1,2.1,2.2,4.2,3.3,6.2
	s2.3,4.2,3.6,6.4c0.6-0.9,1.1-1.8,1.8-2.9s1.2-2.1,1.8-3.2c0.6-1.1,1.2-2.2,1.8-3.3s1.1-2.2,1.6-3.2c0.9,0.2,1.9,0.2,2.8,0
	c-1.2,1.8-2.2,3.4-3.1,4.8c-0.9,1.4-1.7,2.7-2.4,3.9c-0.7,1.2-1.3,2.2-1.9,3.2c-0.5,0.9-1,1.8-1.4,2.5c0,0.9,0,1.9,0,2.9
	c0,1,0,2,0,3c0,1,0,1.9,0.1,2.7c0.1,0.8,0.1,1.5,0.1,2c-0.6,0-1.2-0.1-1.8-0.1c-0.6,0-1.2,0-1.8,0.1c0.1-1.3,0.2-2.8,0.2-4.6
	s0-3.7,0-5.6L61.7,709z"/>
<path class="st0" d="M107.1,699.9c0-1.3-0.1-2.6-0.2-3.9l0.8,0.1c0.2,0,0.5,0.1,0.7,0c0.4,0,0.7-0.1,1.1-0.2c-0.1,0.8-0.1,1.8-0.2,3
	c-0.1,1.2-0.1,2.4-0.2,3.8c0,1.3-0.1,2.7-0.1,4.2s-0.1,2.8-0.1,4.1c0,1.5-0.3,3-0.8,4.4c-0.4,1.2-1.1,2.3-2,3.3
	c-0.9,0.9-2,1.6-3.2,2c-1.4,0.5-2.9,0.7-4.4,0.7c-3.6,0-6.3-0.8-7.9-2.5s-2.5-4.3-2.5-7.8c0-1.1,0-2.1,0.1-3s0.1-1.8,0.1-2.7
	c0-2,0-3.8-0.1-5.4c0-1.6-0.1-2.9-0.1-4l1,0.1c0.3,0,0.6,0.1,1,0c0.3,0,0.5,0,0.8,0l0.8-0.1c0,0.5-0.1,1.2-0.1,2.1
	c-0.1,0.9-0.1,1.8-0.1,3c0,1.1-0.1,2.3-0.1,3.5s0,2.6,0,3.9c0,0.8,0,1.7,0,2.6c0,0.9,0.1,1.7,0.2,2.6c0.1,0.8,0.4,1.6,0.7,2.4
	c0.3,0.8,0.8,1.4,1.4,2c0.7,0.6,1.4,1.1,2.3,1.3c1.1,0.4,2.3,0.5,3.4,0.5c1.2,0,2.3-0.2,3.4-0.6c0.8-0.3,1.6-0.9,2.2-1.5
	c0.6-0.6,1-1.4,1.4-2.2c0.3-0.8,0.6-1.7,0.7-2.6c0.1-0.9,0.2-1.8,0.2-2.7c0-0.9,0-1.7,0-2.5C107.1,704.4,107.1,701.7,107.1,699.9z"
	/>
<path class="st0" d="M127.6,711.6c-3.2-3.4-6.3-6.8-9.5-10.1c0,0.7,0,1.6-0.1,2.7c0,1.2,0,2.7,0,4.7c0,0.5,0,1.1,0,1.9
	c0,0.8,0,1.5,0,2.4s0,1.7,0,2.5s0.1,1.6,0.1,2.4c0,0.7,0,1.4,0.1,1.9c0,0.5,0.1,0.9,0.1,1.1c-0.4-0.1-0.8-0.1-1.3-0.1
	c-0.5,0-0.9,0-1.4,0.1c0-0.2,0.1-0.7,0.2-1.3c0.1-0.7,0.1-1.4,0.2-2.3c0-0.9,0.1-1.9,0.2-3s0.1-2.2,0.1-3.2c0-1.1,0.1-2.1,0.1-3.1
	c0-1,0-1.9,0-2.7c0-2.3,0-4.3,0-6s0-2.9-0.1-3.8h0.6l4.8,5.2c1.7,1.8,3.4,3.6,5,5.4l4.7,5.1c1.5,1.6,2.8,2.9,3.9,4.1v-4.9
	c0-2.5,0-5,0-7.4s-0.1-4.7-0.2-6.8c0.4,0.1,0.8,0.2,1.2,0.2c0.4,0,0.8-0.1,1.2-0.2c0,0.5-0.1,1.3-0.2,2.4s-0.1,2.2-0.1,3.4
	c-0.1,1.2-0.1,2.4-0.2,3.6c0,1.2-0.1,2.1-0.1,2.8v2.2c0,0.8,0,1.7,0,2.6s0,1.8,0,2.7c0,0.9,0,1.8,0,2.5s0,1.5,0,2.1v1.2h-0.5
	C133.7,718.3,130.7,715,127.6,711.6z"/>
<path class="st0" d="M143.8,700.7c-0.1-1.5-0.1-3.1-0.2-4.7l0.9,0.1c0.6,0.1,1.2,0.1,1.8,0l0.9-0.1c-0.1,1.6-0.1,3.2-0.2,4.7
	c-0.1,1.5-0.1,3.1-0.1,4.7v6.3c0,1.6,0,3.2,0.1,4.7c0.1,1.6,0.1,3.1,0.2,4.6c-0.6,0-1.2-0.1-1.8-0.1c-0.6,0-1.2,0-1.8,0.1
	c0.1-1.5,0.1-3,0.2-4.6s0.1-3.1,0.1-4.7v-6.3C143.9,703.8,143.8,702.3,143.8,700.7z"/>
<path class="st0" d="M158.7,715.8c-0.8-2-1.7-4.1-2.6-6.4l-2.8-6.8c-1-2.3-1.9-4.5-2.8-6.6l1,0.1c0.6,0.1,1.2,0.1,1.8,0l1-0.1
	c0.5,1.6,1.1,3.3,1.8,5c0.6,1.7,1.3,3.5,2,5.4c0.7,1.8,1.4,3.7,2.2,5.5c0.8,1.9,1.5,3.7,2.3,5.6c0.4-1,0.9-2.1,1.4-3.3
	c0.5-1.2,1-2.5,1.5-3.8c0.5-1.3,1-2.7,1.5-4l1.5-4c0.5-1.3,0.9-2.4,1.3-3.5c0.4-1.1,0.7-2,1-2.8c0.9,0.2,1.8,0.2,2.7,0
	c-1.9,4.2-3.7,8.4-5.5,12.6s-3.4,8.3-5,12.4c-0.4,0-0.8-0.1-1.2-0.1c-0.4,0-0.8,0-1.2,0.1C160.2,719.6,159.5,717.9,158.7,715.8z"/>
<path class="st0" d="M177.3,700.7c-0.1-1.6-0.1-3.1-0.2-4.7l3.3,0.1c1.1,0,2.2,0.1,3.3,0c1.1,0,2.2,0,3.2,0l3.2-0.1
	c-0.1,0.7-0.1,1.5,0,2.2L188,698l-2-0.2l-2.4-0.1c-0.8,0-1.9,0-3.1,0c0,0.8,0,1.5-0.1,2.2s-0.1,1.5-0.1,2.4c0,0.9,0,1.9,0,2.8
	c0,0.9,0,1.6,0,2c1.1,0,2,0,2.9,0l2.3-0.1l2-0.1l1.7-0.1c-0.1,0.4-0.1,0.8-0.1,1.1c0,0.4,0,0.7,0.1,1.1c-0.6-0.1-1.4-0.1-2.2-0.2
	c-0.8,0-1.7-0.1-2.5-0.1h-2.4h-1.8c0,0.2,0,0.5,0,0.7c0,0.3,0,0.6,0,1v3.6c0,1.4,0,2.5,0,3.4c0,0.9,0,1.6,0,2h2.5c0.9,0,1.8,0,2.7,0
	s1.7-0.1,2.5-0.2c0.7,0,1.4-0.1,2.1-0.3c-0.1,0.2-0.1,0.4-0.1,0.6c0,0.2,0,0.4,0,0.6c0,0.3,0,0.6,0.1,1c-1.1,0-2.2-0.1-3.3-0.1h-6.6
	c-1.1,0-2.2,0-3.3,0.1c0.1-1.6,0.1-3.1,0.2-4.6c0.1-1.5,0.1-3.1,0.1-4.7v-6.3C177.4,703.8,177.4,702.2,177.3,700.7z"/>
<path class="st0" d="M195.1,700.7c-0.1-1.5-0.1-3.1-0.2-4.7l2.1,0.1c0.7,0,1.4,0,2.1,0c0.7,0,1.4,0,2.1-0.1s1.4-0.1,2.1-0.1
	c1,0,2,0.1,2.9,0.3c0.9,0.2,1.7,0.5,2.4,1c0.7,0.4,1.2,1,1.6,1.8c0.9,1.8,0.8,4-0.2,5.7c-0.5,0.8-1.1,1.5-1.9,2.1
	c-0.7,0.5-1.6,1-2.4,1.3c-0.8,0.3-1.5,0.5-2.4,0.6l1.2,1.5c0.5,0.7,1.1,1.4,1.7,2.2l2,2.5l2,2.5c0.6,0.8,1.2,1.5,1.8,2.2
	c0.6,0.7,1,1.2,1.4,1.5c-0.4,0-0.7-0.1-1.1-0.1H210c-0.4,0-0.7,0-1.1,0.1l-1.7-2.3c-0.7-1-1.6-2.1-2.5-3.3c-0.9-1.2-1.8-2.3-2.8-3.5
	c-0.9-1.2-1.8-2.1-2.6-2.9h-1.4v2.7c0,1.6,0,3.2,0.1,4.7c0.1,1.6,0.1,3.1,0.2,4.6c-0.6,0-1.2-0.1-1.8-0.1c-0.6,0-1.2,0-1.8,0.1
	c0.1-1.5,0.1-3,0.2-4.6c0.1-1.5,0.1-3.1,0.1-4.7v-6.3C195.2,703.8,195.1,702.3,195.1,700.7z M199.2,707.6c0.4,0,0.8,0,1.3,0
	c0.8,0,1.6-0.1,2.4-0.2c0.8-0.2,1.6-0.5,2.2-0.9c0.7-0.4,1.3-1,1.7-1.7c0.5-0.8,0.7-1.8,0.7-2.7c0-0.8-0.2-1.6-0.5-2.3
	c-0.3-0.6-0.8-1.1-1.4-1.5c-0.6-0.4-1.2-0.6-1.8-0.8c-0.6-0.1-1.3-0.2-1.9-0.2c-0.8,0-1.5,0-2.1,0s-1,0.1-1.4,0.1
	c0,1.3-0.1,2.7-0.1,4s-0.1,2.6,0,3.9v2.1C198.5,707.6,198.9,707.6,199.2,707.6L199.2,707.6z"/>
<path class="st0" d="M216.9,717.6c0.3,0.5,0.7,0.9,1.2,1.2c1.1,0.8,2.4,1.3,3.8,1.2c0.7,0,1.5-0.1,2.2-0.4c1.2-0.5,2.2-1.5,2.7-2.8
	c0.2-0.7,0.4-1.4,0.4-2.1c0.1-1-0.3-1.9-0.9-2.7c-0.6-0.7-1.3-1.2-2.1-1.6c-0.9-0.5-1.8-0.9-2.8-1.2c-1-0.4-1.9-0.8-2.8-1.4
	c-0.8-0.5-1.6-1.3-2.1-2.1c-0.6-1-0.9-2.2-0.9-3.4c0-1,0.2-1.9,0.5-2.8c0.4-0.8,0.9-1.6,1.6-2.2c0.7-0.6,1.6-1.1,2.5-1.4
	c1.1-0.4,2.2-0.5,3.3-0.5c1,0,2,0.1,3,0.4c0.9,0.3,1.7,0.7,2.4,1.3c-0.2,0.4-0.4,0.9-0.5,1.3c-0.1,0.5-0.3,1-0.4,1.8h-0.4
	c-0.1-0.4-0.3-0.8-0.5-1.1c-0.2-0.4-0.5-0.8-0.8-1.1c-0.4-0.4-0.8-0.6-1.3-0.9c-0.5-0.2-1.1-0.4-1.8-0.3c-0.6,0-1.3,0.1-1.9,0.3
	c-0.6,0.2-1.1,0.5-1.5,0.9c-0.4,0.4-0.8,0.9-1,1.4c-0.2,0.6-0.4,1.2-0.4,1.8c0,1,0.3,1.9,0.9,2.7c0.6,0.7,1.3,1.2,2.1,1.7
	c0.9,0.5,1.8,0.9,2.8,1.2c1,0.3,1.9,0.8,2.8,1.3c0.8,0.5,1.6,1.2,2.1,2c0.6,1,0.9,2.1,0.9,3.2c0,1.1-0.2,2.2-0.6,3.2
	c-0.4,1-1,1.9-1.8,2.6c-0.8,0.8-1.8,1.3-2.8,1.7c-1.2,0.4-2.5,0.6-3.8,0.6c-1.2,0-2.5-0.2-3.7-0.6c-0.8-0.3-1.6-0.8-2.4-1.4
	c0.2-0.5,0.3-1,0.5-1.5c0.1-0.4,0.2-1,0.2-1.7h0.5C216.4,716.8,216.6,717.2,216.9,717.6z"/>
<path class="st0" d="M234.6,700.7c-0.1-1.5-0.1-3.1-0.2-4.7l0.9,0.1c0.6,0.1,1.2,0.1,1.8,0l0.9-0.1c-0.1,1.6-0.1,3.2-0.2,4.7
	c-0.1,1.5-0.1,3.1-0.1,4.7v6.3c0,1.6,0,3.2,0.1,4.7c0.1,1.6,0.1,3.1,0.2,4.6c-0.6,0-1.2-0.1-1.8-0.1c-0.6,0-1.2,0-1.8,0.1
	c0.1-1.5,0.1-3,0.2-4.6c0.1-1.5,0.1-3.1,0.1-4.7v-6.3C234.7,703.8,234.7,702.3,234.6,700.7z"/>
<path class="st0" d="M249,697.9h-2c-0.7,0-1.4,0-2.1,0.1l-2,0.1c-0.7,0-1.2,0.1-1.7,0.2c0.1-0.4,0.2-0.8,0.2-1.2
	c0-0.4-0.1-0.8-0.2-1.1l4.7,0.1c1.5,0,3.1,0,4.7,0c1.6,0,3.2,0,4.7,0l4.7-0.1c-0.1,0.4-0.2,0.8-0.2,1.2c0,0.4,0.1,0.8,0.2,1.1
	c-0.5-0.1-1.1-0.1-1.7-0.2l-2-0.1c-0.7,0-1.4-0.1-2.1-0.1h-2c-0.1,2.5-0.1,5-0.1,7.5v6.3c0,1.6,0,3.2,0.1,4.7
	c0.1,1.6,0.1,3.1,0.2,4.6c-0.6,0-1.2-0.1-1.8-0.1c-0.6,0-1.2,0-1.8,0.1c0.1-1.5,0.1-3,0.2-4.6c0.1-1.5,0.1-3.1,0.1-4.7v-6.3
	C249.1,702.9,249.1,700.4,249,697.9z"/>
<path class="st0" d="M269.4,709l-1.6-2.6l-1.8-3l-1.8-3l-1.5-2.6l-1-1.7l1,0.1c0.7,0.1,1.3,0.1,2,0l1-0.1c1.1,2.1,2.2,4.2,3.3,6.2
	s2.3,4.2,3.6,6.4c0.6-0.9,1.1-1.8,1.8-2.9c0.6-1,1.2-2.1,1.8-3.2c0.6-1.1,1.2-2.2,1.8-3.3c0.6-1.1,1.1-2.2,1.6-3.2
	c0.9,0.2,1.9,0.2,2.8,0c-1.2,1.8-2.2,3.4-3.1,4.8c-0.9,1.4-1.7,2.7-2.4,3.9c-0.7,1.2-1.3,2.2-1.9,3.2s-1,1.8-1.4,2.5
	c0,0.9,0,1.9,0,2.9c0,1,0,2,0,3c0,1,0,1.9,0.1,2.7c0.1,0.8,0.1,1.5,0.1,2c-0.6,0-1.2-0.1-1.8-0.1c-0.6,0-1.2,0-1.8,0.1
	c0.1-1.3,0.2-2.8,0.2-4.6c0-1.8,0-3.7,0-5.6L269.4,709z"/>
<path class="st0" d="M294.8,703c0.6-1.6,1.6-2.9,2.8-4.1c1.2-1.1,2.7-2,4.3-2.5c3.6-1.2,7.4-1.2,11,0c1.6,0.5,3.1,1.4,4.3,2.5
	c1.2,1.1,2.2,2.5,2.8,4.1c1.3,3.5,1.3,7.5,0,11c-1.3,3.2-3.9,5.6-7.1,6.6c-3.6,1.1-7.4,1.1-11,0c-3.2-1-5.9-3.4-7.1-6.6
	C293.5,710.5,293.5,706.6,294.8,703z M316.7,703.3c-0.4-1.4-1.2-2.6-2.1-3.6c-0.9-0.9-2-1.7-3.2-2.1c-2.6-0.9-5.4-0.9-7.9,0
	c-1.2,0.5-2.3,1.2-3.2,2.1c-1,1-1.7,2.3-2.1,3.6c-1,3.4-1,7,0,10.4c0.4,1.4,1.2,2.6,2.1,3.6c0.9,0.9,2,1.7,3.2,2.1
	c2.6,0.9,5.4,0.9,7.9,0c1.2-0.5,2.3-1.2,3.2-2.1c1-1,1.7-2.3,2.1-3.6C317.7,710.3,317.7,706.7,316.7,703.3z"/>
<path class="st0" d="M325.6,700.7c-0.1-1.5-0.1-3.1-0.2-4.7l3.3,0.1c1.1,0,2.2,0,3.3,0s2.2,0,3.3,0l3.6-0.1c-0.1,0.7-0.1,1.5,0,2.2
	c-0.7-0.1-1.5-0.1-2.4-0.2s-1.9-0.1-2.8-0.2l-2.8-0.1h-2.2c0,0.8,0,1.7,0,2.4s0,1.6,0,2.3c0,0.8,0,1.6,0,2.3s0,1.5,0,2.2
	c1.6,0,3.2,0,4.8-0.1s3.1-0.1,4.6-0.3c-0.2,0.7-0.2,1.5,0,2.2c-0.6-0.1-1.3-0.1-2.1-0.2l-2.4-0.1c-0.8,0-1.7,0-2.5,0h-2.4v3.1
	c0,1.6,0,3.2,0.1,4.7c0.1,1.6,0.1,3.1,0.2,4.6c-0.6,0-1.2-0.1-1.8-0.1s-1.2,0-1.8,0.1c0.1-1.5,0.1-3,0.2-4.6
	c0.1-1.5,0.1-3.1,0.1-4.7v-6.3C325.7,703.9,325.7,702.3,325.6,700.7z"/>
<path class="st0" d="M353,700.7c-0.1-1.5-0.1-3.1-0.2-4.7l0.9,0.1c0.6,0.1,1.2,0.1,1.8,0l0.9-0.1c-0.1,1.6-0.1,3.2-0.2,4.7
	c-0.1,1.5-0.1,3.1,0,4.7c0,3.1,0,5.7,0,8s0,4.3,0.1,6c1.7,0,3.4,0,5,0c1.7,0,3.4-0.2,5.1-0.4c-0.1,0.4-0.2,0.7-0.2,1.1
	c0,0.3,0.1,0.7,0.2,1c-1.1,0-2.2-0.1-3.3-0.1h-6.8c-1.1,0-2.2,0-3.4,0.1c0.1-1.5,0.1-3,0.2-4.6c0.1-1.5,0.1-3.1,0.1-4.7v-6.3
	C353.1,703.9,353.1,702.3,353,700.7z"/>
<path class="st0" d="M369.9,703c0.6-1.6,1.6-2.9,2.8-4.1c1.2-1.1,2.7-2,4.3-2.5c3.6-1.2,7.4-1.2,11,0c1.6,0.5,3.1,1.4,4.3,2.5
	c1.2,1.1,2.2,2.5,2.8,4.1c1.3,3.5,1.3,7.5,0,11c-1.3,3.2-3.9,5.6-7.1,6.6c-3.6,1.1-7.4,1.1-11,0c-3.2-1-5.9-3.4-7.1-6.6
	C368.5,710.5,368.5,706.6,369.9,703z M391.8,703.3c-0.4-1.4-1.2-2.6-2.1-3.6c-0.9-0.9-2-1.7-3.2-2.1c-2.6-0.9-5.4-0.9-7.9,0
	c-1.2,0.5-2.3,1.2-3.2,2.1c-1,1-1.7,2.3-2.1,3.6c-1,3.4-1,7,0,10.4c0.4,1.4,1.2,2.6,2.1,3.6c0.9,0.9,2,1.7,3.2,2.1
	c2.6,0.9,5.4,0.9,7.9,0c1.2-0.5,2.3-1.2,3.2-2.1c1-1,1.7-2.3,2.1-3.6C392.8,710.3,392.8,706.7,391.8,703.3z"/>
<path class="st0" d="M412.3,711.6c-3.2-3.4-6.3-6.8-9.5-10.1c0,0.7,0,1.6-0.1,2.7c0,1.2,0,2.7,0,4.7c0,0.5,0,1.1,0,1.9
	c0,0.8,0,1.5,0,2.4s0,1.7,0,2.5s0.1,1.6,0.1,2.4c0,0.7,0,1.4,0.1,1.9c0,0.5,0.1,0.9,0.1,1.1c-0.4-0.1-0.8-0.1-1.3-0.1
	c-0.5,0-0.9,0-1.3,0.1c0-0.2,0.1-0.7,0.2-1.3c0.1-0.7,0.1-1.4,0.2-2.3c0-0.9,0.1-1.9,0.2-3s0.1-2.2,0.2-3.2c0-1.1,0.1-2.1,0.1-3.1
	s0-1.9,0-2.7c0-2.3,0-4.3,0-6s0-2.9,0-3.7h0.6l4.8,5.2c1.7,1.8,3.4,3.6,5,5.4l4.7,5.1c1.5,1.6,2.8,2.9,3.9,4.1v-4.9c0-2.5,0-5,0-7.4
	s-0.1-4.7-0.2-6.8c0.4,0.1,0.8,0.2,1.2,0.2c0.4,0,0.8-0.1,1.2-0.2c0,0.5-0.1,1.3-0.2,2.4c-0.1,1.1-0.1,2.2-0.2,3.4
	c-0.1,1.2-0.1,2.4-0.2,3.6c0,1.2-0.1,2.1-0.1,2.8v2.2c0,0.8,0,1.7,0,2.6c0,0.9,0,1.8,0,2.7c0,0.9,0,1.8,0,2.5s0,1.5,0,2.1v1.2h-0.5
	C418.4,718.3,415.5,715,412.3,711.6z"/>
<path class="st0" d="M428.5,700.7c-0.1-1.5-0.1-3.1-0.2-4.7l2.8,0.1c0.9,0,1.8,0,2.8,0c0.9,0,1.8,0,2.8-0.1c0.9-0.1,1.8-0.1,2.8-0.1
	c1.9,0,3.7,0.2,5.5,0.8c1.4,0.5,2.7,1.3,3.7,2.4c1,1.1,1.7,2.4,2.1,3.8c0.5,1.6,0.7,3.3,0.7,5c0.1,2.1-0.4,4.2-1.3,6.1
	c-0.8,1.6-1.9,2.9-3.2,4c-1.3,1-2.7,1.7-4.3,2.2c-1.5,0.4-3,0.6-4.5,0.6c-0.8,0-1.6,0-2.4,0c-0.8,0-1.6,0-2.4,0h-2.4
	c-0.8,0-1.6,0-2.4,0.1c0.1-1.5,0.1-3,0.2-4.6c0.1-1.5,0.1-3.1,0.1-4.7v-6.3C428.6,703.8,428.6,702.3,428.5,700.7z M431.8,719.4
	c0.7,0.1,1.4,0.2,2.1,0.3c0.9,0.1,1.8,0.1,2.7,0.1c1.3,0,2.7-0.2,4-0.5c1.3-0.3,2.5-0.9,3.6-1.8c1.1-1,2-2.2,2.6-3.6
	c1.3-3.6,1.3-7.5,0.2-11.1c-0.4-1.2-1.2-2.3-2.2-3.2c-0.9-0.8-2.1-1.4-3.3-1.6c-1.4-0.3-2.8-0.5-4.2-0.5c-1.1,0-2.1,0-3.1,0.1
	c-0.9,0.1-1.8,0.2-2.5,0.2c-0.1,1.2-0.1,2.4-0.2,3.7s0,2.6,0,3.9v6.3C431.6,714.3,431.7,716.9,431.8,719.4L431.8,719.4z"/>
<path class="st0" d="M455.5,703c0.6-1.6,1.6-2.9,2.8-4.1c1.2-1.1,2.7-2,4.3-2.5c3.6-1.2,7.4-1.2,11,0c1.6,0.5,3.1,1.4,4.3,2.5
	c1.2,1.1,2.2,2.5,2.8,4.1c1.3,3.5,1.3,7.5,0,11c-1.3,3.2-3.9,5.6-7.1,6.6c-3.6,1.1-7.4,1.1-11,0c-3.2-1-5.9-3.4-7.1-6.6
	C454.1,710.5,454.1,706.6,455.5,703z M477.4,703.3c-0.4-1.4-1.2-2.6-2.1-3.6c-0.9-0.9-2-1.7-3.2-2.1c-2.6-0.9-5.4-0.9-7.9,0
	c-1.2,0.5-2.3,1.2-3.2,2.1c-1,1-1.7,2.3-2.1,3.6c-1,3.4-1,7,0,10.4c0.4,1.4,1.2,2.6,2.1,3.6c0.9,0.9,2,1.7,3.2,2.1
	c2.6,0.9,5.4,0.9,7.9,0c1.2-0.5,2.3-1.2,3.2-2.1c1-1,1.7-2.3,2.1-3.6C478.4,710.3,478.4,706.7,477.4,703.3z"/>
<path class="st0" d="M498,711.6c-3.2-3.4-6.3-6.8-9.5-10.1c0,0.7,0,1.6-0.1,2.7c0,1.2,0,2.7,0,4.7c0,0.5,0,1.1,0,1.9
	c0,0.8,0,1.5,0,2.4s0,1.7,0,2.5s0.1,1.6,0.1,2.4c0,0.7,0,1.4,0.1,1.9c0,0.5,0.1,0.9,0.1,1.1c-0.4-0.1-0.8-0.1-1.3-0.1
	c-0.5,0-0.9,0-1.3,0.1c0-0.2,0.1-0.7,0.2-1.3c0.1-0.7,0.1-1.4,0.2-2.3c0-0.9,0.1-1.9,0.2-3s0.1-2.2,0.2-3.2c0-1.1,0.1-2.1,0.1-3.1
	s0-1.9,0-2.7c0-2.3,0-4.3,0-6s0-2.9-0.1-3.8h0.6l4.8,5.2c1.7,1.8,3.4,3.6,5,5.4l4.7,5.1c1.5,1.6,2.8,2.9,3.9,4.1v-4.9
	c0-2.5,0-5,0-7.4s-0.1-4.7-0.2-6.8c0.4,0.1,0.8,0.2,1.2,0.2c0.4,0,0.8-0.1,1.2-0.2c0,0.5-0.1,1.3-0.2,2.4c-0.1,1.1-0.1,2.2-0.2,3.4
	c-0.1,1.2-0.1,2.4-0.2,3.6c0,1.2-0.1,2.1-0.1,2.8v2.2c0,0.8,0,1.7,0,2.6c0,0.9,0,1.8,0,2.7c0,0.9,0,1.8,0,2.5c0,0.8,0,1.5,0,2.1v1.2
	h-0.3C504.1,718.3,501.1,715,498,711.6z"/>
<path class="st0" d="M71.2,723.2c1.6-1.8,2.9-3.8,4.1-5.9c-0.5,0-0.9,0-1.4,0c-0.4,0-0.8-0.1-1.1-0.2c-0.3,0.7-0.6,1.4-1,2.3
	s-0.8,1.8-1.3,2.8l-0.3,0.6C70.5,723,70.8,723.1,71.2,723.2z"/>
</svg>
